<svg width="500" height="500" viewBox="0 0 500 500" fill="none" xmlns="http://www.w3.org/2000/svg">
<path d="M146.47 39.5898H57.96V186.11H146.47V39.5898Z" fill="#E0E0E0"/>
<path d="M143.53 39.5898H55.0195V186.11H143.53V39.5898Z" fill="#EBEBEB"/>
<path d="M139.769 42.5601H58.7891V183.13H139.769V42.5601Z" fill="#FAFAFA"/>
<path d="M124 60.8301H74.21V164.87H124V60.8301Z" fill="#EBEBEB"/>
<path d="M74.2092 128.05C74.0892 118.33 82.8292 108.84 92.4492 107.49C97.0392 106.84 101.919 107.75 106.209 105.99C113.859 102.85 116.299 92.6799 123.999 89.6699L124.349 164.87H74.2092V128.05Z" fill="#E0E0E0"/>
<path d="M472.41 45.0801H387.52V133.57H472.41V45.0801Z" fill="#E0E0E0"/>
<path d="M466.66 45.0801H381.77V133.57H466.66V45.0801Z" fill="#FAFAFA"/>
<path d="M466.679 133.59H381.739V45.0498H466.679V133.59ZM381.789 133.54H466.629V45.0998H381.789V133.54Z" fill="#E0E0E0"/>
<path d="M455.25 56.9697H393.18V121.67H455.25V56.9697Z" fill="#FAFAFA"/>
<path d="M393.18 122.1C392.743 122.752 392.229 123.35 391.65 123.88C390.65 124.93 389.26 126.34 387.7 127.88C386.14 129.42 384.7 130.79 383.65 131.76C383.113 132.331 382.508 132.835 381.85 133.26C382.289 132.609 382.803 132.012 383.38 131.48C384.38 130.48 385.76 129.02 387.33 127.48C388.9 125.94 390.33 124.56 391.39 123.59C391.925 123.024 392.526 122.524 393.18 122.1V122.1Z" fill="#E0E0E0"/>
<path d="M455.25 121.94C455.898 122.383 456.495 122.896 457.03 123.47C458.03 124.47 459.49 125.86 461.03 127.47C462.57 129.08 463.93 130.47 464.91 131.53C465.479 132.063 465.979 132.664 466.4 133.32C465.753 132.884 465.159 132.374 464.63 131.8C463.58 130.8 462.16 129.41 460.63 127.8C459.1 126.19 457.71 124.8 456.74 123.74C456.171 123.204 455.67 122.599 455.25 121.94V121.94Z" fill="#E0E0E0"/>
<path d="M455.079 57.15C455.516 56.4973 456.029 55.8997 456.609 55.37C457.609 54.37 458.989 52.9 460.549 51.37C462.109 49.84 463.549 48.46 464.609 47.48C465.149 46.9213 465.749 46.4248 466.399 46C465.963 46.6473 465.453 47.2413 464.879 47.77C463.879 48.82 462.489 50.24 460.879 51.77C459.269 53.3 457.879 54.69 456.819 55.66C456.292 56.2154 455.709 56.7147 455.079 57.15V57.15Z" fill="#E0E0E0"/>
<path d="M393 57.3C392.347 56.8634 391.75 56.3497 391.22 55.77C390.17 54.77 388.76 53.39 387.22 51.83C385.68 50.27 384.31 48.83 383.34 47.77C382.773 47.2327 382.27 46.6321 381.84 45.98C382.492 46.4137 383.089 46.924 383.62 47.5C384.62 48.5 386.08 49.89 387.62 51.5C389.16 53.11 390.54 54.5 391.51 55.56C392.072 56.0801 392.572 56.6641 393 57.3V57.3Z" fill="#E0E0E0"/>
<path d="M455.079 121.67C455.071 121.567 455.071 121.463 455.079 121.36C455.079 121.14 455.079 120.84 455.079 120.45C455.079 119.64 455.079 118.45 455.079 116.96C455.079 113.9 455.079 109.44 455.019 103.78C455.019 92.4397 454.949 76.2997 454.899 56.9697L455.139 57.2097H393.249L393.519 56.9297C393.519 80.6797 393.519 102.93 393.519 121.63L393.279 121.4L438.099 121.52L450.679 121.58H454.019H455.179C455.086 121.589 454.993 121.589 454.899 121.58H453.999H450.709L438.179 121.64L393.179 121.76H392.939V121.52C392.939 102.79 392.939 80.5697 392.939 56.8197V56.6997H393.229H455.119H455.359V56.9997C455.299 76.3997 455.259 92.5897 455.229 104C455.229 109.64 455.229 114.08 455.169 117.13C455.169 118.63 455.169 119.78 455.169 120.58C455.169 120.95 455.169 121.24 455.169 121.45C455.169 121.66 455.079 121.68 455.079 121.67Z" fill="#E0E0E0"/>
<path d="M434.569 78.9697H413.859V99.6797H434.569V78.9697Z" fill="#EBEBEB"/>
<path d="M344.2 459.75C342.44 458.24 338.5 453.45 341.54 447.87C342.65 445.87 345.02 444.81 347.15 443.87C349.28 442.93 351.54 442.19 353.31 440.68C356.65 437.84 357.57 433.13 359.79 429.34C362.33 424.99 367.08 421.73 372.1 421.96C377.84 422.22 382.63 426.91 384.8 432.26C386.97 437.61 387.05 443.55 387.1 449.33C387.1 452.52 386.98 456.12 384.63 458.28C382.47 460.28 379.22 460.28 376.28 460.2L344.89 459.2" fill="#F5F5F5"/>
<path d="M404.249 373.43H321.689L336.559 462.1C336.866 463.949 337.692 465.673 338.94 467.071C340.188 468.47 341.807 469.485 343.609 470L343.899 470.08C344.139 470.14 344.379 470.22 344.629 470.27C345.183 470.378 345.745 470.442 346.309 470.46V470.55L346.709 470.48H383.509C384.181 470.478 384.851 470.411 385.509 470.28C387.658 469.947 389.638 468.918 391.146 467.352C392.654 465.786 393.607 463.769 393.859 461.61L401.029 400.51L401.349 398.08L404.179 373.89L404.249 373.43ZM388.669 430H380.199L381.059 404.27H390.869L388.669 430ZM391.669 404.27H399.789L396.789 430H389.499L391.669 404.27ZM367.469 458.53L366.999 436.16H379.209L378.459 458.52L367.469 458.53ZM354.299 436.16H366.149L366.669 458.52H355.999L354.299 436.16ZM355.219 458.52H345.279C344.329 452.52 343.099 444.64 341.769 436.16H353.479L355.219 458.52ZM353.819 430L351.819 404.27H365.419L365.999 430H353.819ZM366.819 430L366.229 404.27H380.229L379.379 430H366.819ZM366.089 398.09L365.539 374.26H381.219L380.429 398.09H366.089ZM365.269 398.09H351.339L349.489 374.26H364.729L365.269 398.09ZM350.509 398.09H335.769C335.249 394.8 334.769 391.69 334.309 388.88C332.769 379.25 332.189 375.62 331.869 374.26H348.669L350.509 398.09ZM350.989 404.27L352.999 430H340.799C340.389 427.39 339.979 424.75 339.559 422.11C338.609 416.03 337.649 409.96 336.749 404.27H350.989ZM339.999 430H331.999L327.679 404.27H335.909C337.179 412.21 338.569 421.06 339.999 430ZM340.999 436.17C342.219 443.91 343.409 451.54 344.509 458.53H336.849L332.999 436.16L340.999 436.17ZM379.309 458.53L380.059 436.17H388.209L386.299 458.53H379.309ZM381.309 398.09L382.099 374.26H393.489L391.489 398.09H381.309ZM331.139 374.26C331.469 375.98 332.969 385.36 334.989 398.09H326.699L322.699 374.26H331.139ZM393.489 458.53H387.109L388.999 436.16H396.089L393.489 458.53ZM400.579 398.09H392.269L394.269 374.26H403.339L400.579 398.09Z" fill="#E0E0E0"/>
<path d="M451.24 471.41C451.24 471.56 355.31 471.67 237 471.67C118.69 471.67 22.7402 471.56 22.7402 471.41C22.7402 471.26 118.65 471.15 237 471.15C355.35 471.15 451.24 471.27 451.24 471.41Z" fill="#263238"/>
<path d="M336.51 363.08L223 363C216.445 362.995 210.16 360.387 205.526 355.75C200.893 351.113 198.29 344.825 198.29 338.27V53.7101C198.293 50.4583 198.937 47.2389 200.185 44.2363C201.433 41.2336 203.262 38.5067 205.565 36.2115C207.869 33.9163 210.602 32.0979 213.609 30.8605C216.617 29.6231 219.838 28.9909 223.09 29.0001L336.6 29.0701C343.155 29.0754 349.44 31.6832 354.074 36.3204C358.707 40.9576 361.31 47.2448 361.31 53.8001L361.25 338.35C361.251 341.599 360.612 344.816 359.369 347.818C358.126 350.819 356.304 353.547 354.006 355.843C351.708 358.14 348.981 359.961 345.978 361.203C342.976 362.445 339.759 363.083 336.51 363.08V363.08Z" fill="#455A64"/>
<path d="M336.48 39.1401H314.48C313.763 39.1557 313.056 39.3124 312.399 39.6013C311.743 39.8902 311.15 40.3056 310.654 40.8238C310.158 41.342 309.769 41.9528 309.509 42.6213C309.249 43.2899 309.124 44.0031 309.14 44.7201V48.7201C309.156 49.4372 309.03 50.1504 308.771 50.8189C308.511 51.4875 308.122 52.0983 307.626 52.6165C307.13 53.1346 306.537 53.55 305.88 53.8389C305.224 54.1278 304.517 54.2845 303.8 54.3001H260.9C259.451 54.266 258.074 53.6582 257.073 52.6101C256.072 51.5619 255.528 50.1593 255.56 48.7101V44.7101C255.592 43.261 255.048 41.8583 254.047 40.8102C253.045 39.7621 251.669 39.1542 250.22 39.1201H223.22C220.945 39.1175 218.692 39.5633 216.589 40.432C214.487 41.3008 212.576 42.5754 210.967 44.183C209.357 45.7907 208.081 47.6998 207.209 49.8013C206.338 51.9027 205.89 54.1553 205.89 56.4301L205.84 334.18C205.84 338.77 207.662 343.173 210.906 346.42C214.149 349.668 218.55 351.495 223.14 351.5L336.42 351.56C338.695 351.563 340.948 351.117 343.05 350.248C345.153 349.379 347.063 348.105 348.673 346.497C350.282 344.89 351.559 342.98 352.43 340.879C353.301 338.778 353.75 336.525 353.75 334.25V56.5001C353.76 51.9083 351.947 47.5002 348.709 44.2448C345.47 40.9895 341.072 39.1534 336.48 39.1401Z" fill="#FAFAFA"/>
<path d="M316.8 48.1499H315.54V49.9099H316.8V48.1499Z" fill="#263238"/>
<path d="M318.85 47.3701H317.59V49.9201H318.85V47.3701Z" fill="#263238"/>
<path d="M320.89 46.7803H319.63V49.9203H320.89V46.7803Z" fill="#263238"/>
<path d="M322.94 45.6401H321.68V49.9201H322.94V45.6401Z" fill="#263238"/>
<path d="M341.51 50.0002H335.2C335.08 50.0002 334.964 49.9531 334.878 49.869C334.792 49.7849 334.743 49.6704 334.74 49.5502V46.4102C334.74 46.2908 334.788 46.1764 334.872 46.092C334.956 46.0076 335.071 45.9602 335.19 45.9602H341.51C341.536 45.9501 341.565 45.9501 341.59 45.9602C341.599 45.9895 341.599 46.0208 341.59 46.0502V47.0502H342.27C342.302 47.0502 342.333 47.0628 342.355 47.0853C342.378 47.1078 342.39 47.1383 342.39 47.1702V48.6802C342.388 48.7102 342.374 48.7382 342.352 48.7586C342.33 48.779 342.3 48.7903 342.27 48.7902H341.59V49.7902C341.618 49.8008 341.641 49.822 341.653 49.8492C341.665 49.8764 341.666 49.9073 341.655 49.9352C341.645 49.963 341.623 49.9855 341.596 49.9977C341.569 50.0099 341.538 50.0108 341.51 50.0002V50.0002ZM341.39 46.1902H335.19C335.161 46.1902 335.133 46.1959 335.106 46.2069C335.079 46.218 335.055 46.2342 335.035 46.2546C335.014 46.275 334.998 46.2993 334.987 46.326C334.976 46.3527 334.97 46.3813 334.97 46.4102V49.5502C334.97 49.5799 334.976 49.6094 334.988 49.6367C335 49.6641 335.017 49.6888 335.038 49.7094C335.06 49.7299 335.085 49.7459 335.113 49.7564C335.141 49.7668 335.171 49.7715 335.2 49.7702H341.39V48.7702C341.39 48.7383 341.403 48.7078 341.425 48.6853C341.448 48.6628 341.478 48.6502 341.51 48.6502H342.18V47.3402H341.51C341.495 47.3416 341.48 47.3398 341.465 47.3349C341.451 47.3299 341.437 47.3221 341.426 47.3117C341.415 47.3014 341.406 47.2888 341.399 47.2747C341.393 47.2607 341.39 47.2455 341.39 47.2302V46.1902Z" fill="#263238"/>
<path d="M335.49 49.26V46.71H340.88V47.86V48.11V49.26H335.49Z" fill="#263238"/>
<path d="M329 49.7603C328.998 49.6391 328.948 49.5236 328.863 49.4379C328.777 49.3521 328.661 49.3028 328.54 49.3003C328.418 49.3003 328.301 49.3488 328.215 49.435C328.129 49.5213 328.08 49.6383 328.08 49.7603C328.079 49.8211 328.09 49.8815 328.112 49.9379C328.135 49.9944 328.169 50.0456 328.212 50.0886C328.255 50.1316 328.306 50.1654 328.363 50.1881C328.419 50.2107 328.479 50.2217 328.54 50.2203C328.662 50.2203 328.779 50.1718 328.865 50.0856C328.952 49.9993 329 49.8823 329 49.7603V49.7603Z" fill="#263238"/>
<path d="M326.92 48.6502L327.51 49.2402C327.64 49.1059 327.795 48.9991 327.967 48.9262C328.139 48.8532 328.323 48.8157 328.51 48.8157C328.697 48.8157 328.881 48.8532 329.053 48.9262C329.225 48.9991 329.38 49.1059 329.51 49.2402L330.1 48.6502C329.89 48.4405 329.641 48.2749 329.366 48.1632C329.091 48.0516 328.797 47.9962 328.5 48.0002C327.908 48.0007 327.341 48.2342 326.92 48.6502V48.6502Z" fill="#263238"/>
<path d="M328.5 46.6799C327.567 46.6688 326.668 47.0285 326 47.6799L326.58 48.2699C327.089 47.7649 327.778 47.4816 328.495 47.4816C329.212 47.4816 329.901 47.7649 330.41 48.2699L331 47.6799C330.331 47.0303 329.433 46.671 328.5 46.6799V46.6799Z" fill="#263238"/>
<path d="M325 46.7599L325.59 47.3499C326.351 46.5891 327.384 46.1617 328.46 46.1617C329.536 46.1617 330.569 46.5891 331.33 47.3499L331.92 46.7599C331.001 45.844 329.757 45.3296 328.46 45.3296C327.163 45.3296 325.919 45.844 325 46.7599V46.7599Z" fill="#263238"/>
<path d="M287.38 73.7002H279.76C279.235 73.7002 278.81 74.1255 278.81 74.6502V79.8202C278.81 80.3449 279.235 80.7702 279.76 80.7702H287.38C287.904 80.7702 288.33 80.3449 288.33 79.8202V74.6502C288.33 74.1255 287.904 73.7002 287.38 73.7002Z" fill="#263238"/>
<path d="M280.91 74.1602H279.91V73.0002C279.884 72.5041 279.96 72.008 280.132 71.5419C280.304 71.0759 280.569 70.6498 280.911 70.2894C281.252 69.9291 281.664 69.6422 282.121 69.4461C282.577 69.25 283.069 69.1489 283.565 69.1489C284.062 69.1489 284.554 69.25 285.01 69.4461C285.466 69.6422 285.878 69.9291 286.22 70.2894C286.562 70.6498 286.827 71.0759 286.999 71.5419C287.171 72.008 287.246 72.5041 287.22 73.0002V73.7602H286.22V73.0002C286.243 72.6378 286.19 72.2747 286.067 71.9333C285.944 71.5918 285.752 71.2793 285.503 71.0148C285.254 70.7503 284.954 70.5396 284.621 70.3955C284.288 70.2515 283.928 70.1772 283.565 70.1772C283.202 70.1772 282.843 70.2515 282.51 70.3955C282.177 70.5396 281.876 70.7503 281.628 71.0148C281.379 71.2793 281.187 71.5918 281.064 71.9333C280.94 72.2747 280.888 72.6378 280.91 73.0002V74.1602Z" fill="#263238"/>
<path d="M207 248.89C207.098 239.899 209.571 231.094 214.168 223.367C218.766 215.64 225.325 209.265 233.18 204.89C244.18 198.89 257 197.33 269.23 194.52C281.46 191.71 294.14 187.07 301.7 177.06C311.92 163.53 309.97 144.3 317.35 129.06C320.781 122.179 325.987 116.339 332.43 112.143C338.873 107.946 346.319 105.546 354 105.19V337.7C354 341.447 352.511 345.041 349.861 347.691C347.212 350.341 343.618 351.83 339.87 351.83H221.15C219.293 351.831 217.454 351.467 215.738 350.757C214.022 350.048 212.463 349.008 211.149 347.695C209.835 346.383 208.792 344.825 208.08 343.11C207.368 341.395 207.001 339.557 207 337.7V248.89Z" fill="#EBEBEB"/>
<path d="M252.712 93.4211C254.98 82.8704 248.265 72.4791 237.714 70.2115C227.163 67.9438 216.772 74.6585 214.504 85.2092C212.237 95.7599 218.951 106.151 229.502 108.419C240.053 110.687 250.444 103.972 252.712 93.4211Z" fill="#E0E0E0"/>
<path d="M127.651 244.76C126.241 243.76 124.501 243.34 122.931 242.6C121.361 241.86 119.841 240.6 119.691 238.84C119.481 236.28 122.301 234.35 122.471 231.84C122.701 228.23 117.821 226.26 117.111 222.72C116.521 219.78 119.011 217.01 118.911 214.01C118.811 211.01 116.211 208.78 115.031 206.01C112.271 199.63 117.351 191.4 113.501 185.61C112.333 184.153 111.027 182.814 109.601 181.61C108.281 180.29 107.131 178.61 107.291 176.7L100.071 173.42C97.6506 169.72 92.1606 169.58 88.0706 171.16C83.9806 172.74 80.3206 175.57 76.0706 176.63C73.9906 177.14 74.2906 174.06 72.1906 174.49C69.4206 175.05 66.0306 178.28 65.1906 180.96C64.3506 183.83 63.7606 187.01 62.7406 189.83C61.6106 192.94 58.2806 195.11 57.9606 198.41C57.6006 202.25 61.5706 205.41 61.5806 209.25C61.5806 213.4 57.0006 217.12 58.4606 221.01C59.3006 223.23 61.8606 224.42 62.7606 226.62C63.9906 229.62 61.5406 233 61.7606 236.27C61.9806 239.54 64.7006 241.94 67.2706 243.9C77.0566 251.538 88.0061 257.555 99.7006 261.72C104.771 263.46 110.111 264.79 115.451 264.31C120.791 263.83 126.161 261.31 128.961 256.69C131.251 252.94 131.231 247.33 127.651 244.76Z" fill="#263238"/>
<path d="M107 174.89C106.343 172.264 104.999 169.861 103.106 167.927C101.213 165.993 98.8395 164.598 96.2287 163.885C93.6179 163.172 90.8644 163.167 88.2512 163.871C85.638 164.575 83.2593 165.962 81.3598 167.89C79.8198 169.45 78.5998 171.36 76.7798 172.58C74.7198 173.97 74.4198 173.58 72.1198 174.47C69.8198 175.36 65.5898 181.79 65.6598 184.27L64.5098 195.13C64.5998 197.67 67.8698 199.13 70.2698 198.27C72.6698 197.41 74.2698 195.19 75.5498 192.99C76.8298 190.79 77.9998 188.41 80.0998 187C83.5498 184.57 88.2298 185.41 92.3598 186.25C96.4898 187.09 101.28 187.7 104.51 184.98C107.29 182.59 107.89 178.42 107 174.89Z" fill="#263238"/>
<path d="M109.28 190.39C108.81 183.32 104.11 174.66 97.07 175.39L75.07 181C74.0395 181.112 73.0888 181.607 72.4055 182.387C71.7223 183.166 71.3563 184.174 71.38 185.21L73.85 238.21H73.69C73.69 238.21 82.69 257.16 97.17 252.59C100.05 251.68 97.43 244.53 98.01 241.29H98.15C98.15 240.91 98.15 240.55 98.15 240.18C98.4346 237.763 98.4648 235.323 98.24 232.9V232.9C98.24 228.62 98.24 226.9 98.24 226.9C98.24 226.9 107.24 225.38 109.11 213.6C110.1 207.85 109.79 198.24 109.28 190.39Z" fill="#FFBE9D"/>
<path d="M107.46 199.47C107.466 199.865 107.316 200.247 107.043 200.533C106.77 200.819 106.396 200.987 106 201C105.808 201.015 105.615 200.991 105.432 200.931C105.249 200.87 105.08 200.774 104.935 200.647C104.79 200.52 104.671 200.366 104.586 200.193C104.501 200.02 104.452 199.832 104.44 199.64C104.438 199.245 104.588 198.865 104.861 198.579C105.133 198.294 105.506 198.125 105.9 198.11C106.093 198.093 106.287 198.116 106.47 198.176C106.654 198.236 106.823 198.332 106.969 198.459C107.114 198.586 107.233 198.741 107.317 198.914C107.402 199.088 107.45 199.277 107.46 199.47V199.47Z" fill="#263238"/>
<path d="M107.2 195.39C107.02 195.59 105.87 194.75 104.2 194.75C102.53 194.75 101.39 195.58 101.2 195.38C101.01 195.18 101.3 194.93 101.82 194.56C102.524 194.069 103.362 193.807 104.22 193.81C105.064 193.809 105.887 194.075 106.57 194.57C107.12 195 107.3 195.3 107.2 195.39Z" fill="#263238"/>
<path d="M92.0902 200C92.0957 200.393 91.9468 200.772 91.6757 201.056C91.4046 201.34 91.0328 201.507 90.6402 201.52C90.4478 201.536 90.2541 201.514 90.0706 201.454C89.8871 201.394 89.7175 201.297 89.572 201.171C89.4265 201.044 89.3079 200.889 89.2234 200.715C89.139 200.542 89.0903 200.353 89.0802 200.16C89.0748 199.767 89.2236 199.388 89.4947 199.104C89.7658 198.82 90.1376 198.653 90.5302 198.64C90.7226 198.624 90.9163 198.646 91.0998 198.706C91.2833 198.766 91.4529 198.862 91.5984 198.989C91.744 199.116 91.8625 199.271 91.947 199.445C92.0315 199.618 92.0802 199.807 92.0902 200V200Z" fill="#263238"/>
<path d="M91.2206 195.73C91.0406 195.93 89.8906 195.08 88.2206 195.09C86.5506 195.1 85.4106 195.92 85.2206 195.72C85.0306 195.52 85.3206 195.27 85.8406 194.89C86.547 194.405 87.3841 194.147 88.2406 194.15C89.0834 194.146 89.9059 194.409 90.5906 194.9C91.1406 195.29 91.3106 195.64 91.2206 195.73Z" fill="#263238"/>
<path d="M97.1501 207.78C98.0053 207.503 98.8927 207.339 99.7901 207.29C100.2 207.29 100.6 207.17 100.67 206.88C100.699 206.451 100.602 206.024 100.39 205.65C99.9901 204.65 99.5801 203.6 99.1501 202.49C97.4401 198 96.1501 194.3 96.3801 194.23C96.6101 194.16 98.1001 197.75 99.8101 202.23C100.22 203.34 100.62 204.4 100.99 205.41C101.253 205.91 101.331 206.488 101.21 207.04C101.15 207.186 101.058 207.317 100.94 207.423C100.822 207.528 100.682 207.606 100.53 207.65C100.301 207.708 100.066 207.741 99.8301 207.75C98.9414 207.87 98.0413 207.88 97.1501 207.78V207.78Z" fill="#263238"/>
<path d="M98.3203 227C92.7726 227.097 87.3067 225.654 82.5303 222.83C82.5303 222.83 86.3703 230.91 98.1603 229.83L98.3203 227Z" fill="#EB996E"/>
<path d="M96.4697 211.7C96.1608 211.309 95.7569 211.004 95.2966 210.813C94.8362 210.622 94.3347 210.552 93.8397 210.61C93.4813 210.644 93.1335 210.749 92.8172 210.921C92.5009 211.093 92.2228 211.328 91.9997 211.61C91.781 211.881 91.6511 212.212 91.6278 212.559C91.6045 212.907 91.689 213.253 91.8697 213.55C92.1353 213.838 92.4796 214.042 92.8601 214.137C93.2406 214.231 93.6403 214.211 94.0097 214.08C94.7753 213.808 95.479 213.387 96.0797 212.84C96.2628 212.707 96.4189 212.541 96.5397 212.35C96.6004 212.262 96.6328 212.157 96.6328 212.05C96.6328 211.943 96.6004 211.838 96.5397 211.75" fill="#EB996E"/>
<path d="M92.37 208.91C92.63 208.91 92.64 210.66 94.15 211.91C95.66 213.16 97.54 212.96 97.56 213.21C97.58 213.46 97.14 213.55 96.35 213.57C95.3121 213.581 94.3035 213.227 93.5 212.57C92.7334 211.942 92.239 211.043 92.12 210.06C92.05 209.34 92.25 208.9 92.37 208.91Z" fill="#263238"/>
<path d="M92.0001 192.88C91.8401 193.33 90.2101 193.12 88.3101 193.35C86.4101 193.58 84.8601 194.11 84.6001 193.72C84.4901 193.53 84.7601 193.11 85.3801 192.72C86.2001 192.171 87.1398 191.828 88.1201 191.72C89.0968 191.605 90.0868 191.721 91.0101 192.06C91.6601 192.33 92.0001 192.67 92.0001 192.88Z" fill="#263238"/>
<path d="M106.59 190.69C106.31 191.06 105.19 190.69 103.84 190.69C102.49 190.69 101.36 190.95 101.09 190.56C100.98 190.37 101.16 190 101.65 189.65C102.32 189.23 103.099 189.019 103.889 189.042C104.68 189.065 105.445 189.322 106.09 189.78C106.56 190.13 106.72 190.51 106.59 190.69Z" fill="#263238"/>
<path d="M96.6798 172.41L95.6798 171.13C88.8746 171.912 82.2072 173.614 75.8598 176.19C73.3198 177.19 70.7598 178.45 69.0198 180.57C66.6398 183.48 66.2598 187.5 66.0198 191.25C65.0198 205.55 64.1298 220.25 68.6298 233.88C69.7098 232.14 71.8298 231.36 73.8398 230.97C75.8498 230.58 77.9598 230.45 79.8398 229.52C80.8277 228.984 81.6934 228.248 82.382 227.36C83.0705 226.472 83.567 225.45 83.8398 224.36C84.3733 222.155 84.115 219.833 83.1098 217.8C82.0198 215.53 80.1098 213.34 80.5498 210.87C80.9898 208.4 84.0098 206.81 84.7098 204.27C85.9198 199.88 79.7098 195.94 80.9998 191.56C81.2829 190.771 81.7243 190.048 82.297 189.436C82.8696 188.824 83.5614 188.335 84.3298 188C85.8298 187.25 87.4798 186.83 88.9998 186.12C91.5245 184.89 93.613 182.917 94.9856 180.467C96.3582 178.017 96.9493 175.205 96.6798 172.41V172.41Z" fill="#263238"/>
<path d="M156.16 262.23L142.38 283.67C142.913 284.452 143.638 285.083 144.486 285.504C145.333 285.924 146.275 286.119 147.22 286.07C150.54 285.93 155.1 277.65 155.64 275.98C156.18 274.31 155.45 272.69 155.94 271.57C156.43 270.45 156.24 267.39 156.24 267.39C156.17 267.57 159.22 263.49 156.16 262.23Z" fill="#FFBE9D"/>
<path d="M138.57 283.66L145.75 255.27C145.86 254.852 146.052 254.46 146.314 254.116C146.577 253.773 146.905 253.485 147.28 253.27L157.71 247.32C158.018 247.147 158.379 247.094 158.723 247.169C159.068 247.245 159.373 247.444 159.58 247.73V247.73C159.703 247.9 159.787 248.094 159.827 248.3C159.866 248.505 159.861 248.717 159.81 248.92L152.21 278.8L138.57 283.66Z" fill="#263238"/>
<path d="M134.95 305.66L151.62 274.87L145.34 266.74L121.88 284.54L128.03 301.46L134.95 305.66Z" fill="#9724C5"/>
<path d="M151.82 281.55C151.965 281.137 152.072 280.712 152.14 280.28C152.25 279.082 152.132 277.874 151.79 276.72V276.65V276.58C151.936 276.347 152.03 276.085 152.066 275.813C152.103 275.54 152.08 275.263 152 275C151.77 274.407 151.361 273.9 150.83 273.55L150.65 273.43L150.77 273.24L152.66 270.42C152.835 270.195 152.982 269.95 153.1 269.69C153.175 269.445 153.154 269.18 153.04 268.95C152.77 268.419 152.371 267.965 151.88 267.63L151.64 267.46L151.83 267.24C152.34 266.66 152.91 266.08 153.48 265.49C154.455 264.486 155.373 263.427 156.23 262.32C156.617 261.811 156.952 261.265 157.23 260.69C157.36 260.433 157.445 260.156 157.48 259.87C157.48 259.61 157.38 259.47 157.23 259.44H157.17C156.849 259.407 156.525 259.459 156.23 259.59C155.889 259.716 155.555 259.859 155.23 260.02C154.62 260.35 154.05 260.69 153.53 261.02C152.53 261.7 151.58 262.34 150.85 262.87L149.14 264.11C148.95 264.278 148.738 264.419 148.51 264.53C148.665 264.33 148.847 264.152 149.05 264C149.42 263.67 149.97 263.21 150.68 262.64C151.39 262.07 152.27 261.41 153.31 260.7C153.84 260.34 154.4 259.98 155.03 259.63C155.352 259.452 155.686 259.295 156.03 259.16C156.417 258.97 156.856 258.91 157.28 258.99H157.22C157.434 259.02 157.628 259.133 157.759 259.306C157.891 259.478 157.948 259.695 157.92 259.91C157.887 260.257 157.793 260.596 157.64 260.91C157.348 261.522 156.993 262.102 156.58 262.64C155.721 263.773 154.792 264.852 153.8 265.87C153.23 266.46 152.66 267.04 152.15 267.61V267.22C152.725 267.614 153.187 268.152 153.49 268.78C153.644 269.123 153.665 269.512 153.55 269.87C153.419 270.167 153.251 270.446 153.05 270.7C152.37 271.7 151.72 272.64 151.11 273.52V273.2C151.712 273.615 152.167 274.21 152.41 274.9C152.502 275.216 152.526 275.548 152.479 275.874C152.433 276.2 152.317 276.512 152.14 276.79V276.65C152.459 277.85 152.524 279.103 152.33 280.33C152.271 280.659 152.167 280.979 152.02 281.28C151.9 281.46 151.84 281.56 151.82 281.55Z" fill="#EB996E"/>
<path d="M159.58 247.72C159.319 247.955 159.031 248.156 158.72 248.32C158.15 248.68 157.32 249.19 156.28 249.81L152.63 252L150.47 253.25C149.684 253.629 148.951 254.11 148.29 254.68C147.716 255.309 147.334 256.09 147.19 256.93C146.97 257.77 146.76 258.57 146.56 259.35L145.47 263.44C145.15 264.6 144.88 265.54 144.68 266.18C144.607 266.527 144.49 266.863 144.33 267.18C144.336 266.841 144.39 266.504 144.49 266.18C144.62 265.52 144.84 264.57 145.11 263.4C145.38 262.23 145.73 260.8 146.11 259.28C146.297 258.5 146.497 257.69 146.71 256.85C146.872 255.918 147.295 255.051 147.93 254.35C148.632 253.757 149.405 253.253 150.23 252.85L152.41 251.63L156.11 249.63C157.17 249.05 158.03 248.63 158.63 248.29C158.918 248.056 159.238 247.864 159.58 247.72V247.72Z" fill="#455A64"/>
<path d="M152.67 257.42C152.41 258.04 152.38 258.62 152.6 258.71C152.82 258.8 153.21 258.38 153.47 257.76C153.73 257.14 153.76 256.57 153.54 256.47C153.32 256.37 152.93 256.81 152.67 257.42Z" fill="white"/>
<path d="M100.75 240.21C104.335 241.501 107.63 243.486 110.448 246.051C113.265 248.616 115.549 251.712 117.17 255.16L139.55 302.78L158.83 310.6L141.83 315.49L126.73 304.4L100.75 240.21Z" fill="#9724C5"/>
<path d="M141.85 315.49L133.73 321.75L93.2098 280.07L70.0498 238.23L72.7298 230.45L90.6398 237.91L97.0498 247.39L98.4798 235.39L99.6298 237L101.5 242.07C101.5 242.07 119.08 256.7 122.88 268.29C126 278 125.05 298 127 303.4L141.85 315.49Z" fill="#FAFAFA"/>
<path d="M65.7101 237.69C65.4401 238.5 48.3901 245.35 47.5801 251.32C46.7701 257.29 59.8301 303.45 59.8301 303.45L80.5401 321.75H133.73L116.86 290.16C113.224 283.348 108.623 277.097 103.2 271.6C98.2001 266.54 92.2001 260.28 89.0601 256.55C85.6901 252.5 71.4001 233.55 71.4001 233.55L65.7101 237.69Z" fill="#9724C5"/>
<path d="M76.3799 239.58C77.4135 239.951 78.4165 240.403 79.3799 240.93C81.2099 241.83 83.7199 243.09 86.4799 244.52L89.6199 246.16L89.2599 246.4C89.1398 244.533 89.2506 242.659 89.5899 240.82C89.6846 240.092 89.8833 239.381 90.1799 238.71C90.1227 239.434 90.0293 240.155 89.8999 240.87C89.6657 242.69 89.6155 244.53 89.7499 246.36V246.8L89.3599 246.6L86.2599 245C83.4999 243.57 81.0199 242.25 79.2599 241.27C78.2582 240.781 77.2954 240.216 76.3799 239.58V239.58Z" fill="#263238"/>
<path d="M117.38 281.68C117.062 281.253 116.778 280.802 116.53 280.33L114.36 276.56C112.54 273.37 110 268.98 107.14 264.17C104.28 259.36 101.61 255.05 99.6804 251.93L97.3904 248.23C97.0925 247.789 96.8316 247.324 96.6104 246.84C96.9839 247.233 97.3188 247.662 97.6104 248.12C98.2004 248.96 99.0304 250.19 100.04 251.73C102.04 254.8 104.76 259.09 107.64 263.91C110.52 268.73 112.99 273.15 114.73 276.38C115.61 278 116.3 279.31 116.73 280.23C116.986 280.695 117.204 281.18 117.38 281.68Z" fill="#263238"/>
<g opacity="0.3">
<path opacity="0.3" d="M109.19 313.86C112.28 314.38 115.45 314.86 118.53 314.32C121.61 313.78 124.62 311.79 125.59 308.81C125.743 307.837 126.138 306.919 126.74 306.14C127.93 305.04 129.83 305.72 131.44 305.57C132.336 305.433 133.189 305.091 133.931 304.571C134.673 304.05 135.286 303.366 135.72 302.57C136.579 300.977 137.183 299.26 137.51 297.48C137.77 296.622 137.878 295.725 137.83 294.83C137.799 294.384 137.656 293.954 137.415 293.578C137.174 293.203 136.842 292.894 136.45 292.68C135.23 292.13 133.85 292.93 132.77 293.68C124 300 116 307.34 108 314.64" fill="black"/>
</g>
<path d="M129.061 278.62C129.061 278.62 132.111 271.62 133.731 270.62C135.351 269.62 143.441 264.93 143.441 264.93L142.441 268.78L150.351 263.29C151.351 262.64 156.961 257.51 157.961 259.51C158.691 260.95 154.081 264.75 153.461 265.6C151.921 267.71 152.461 267.52 152.461 267.52C152.461 267.52 154.131 268.52 153.291 270.02C152.604 271.171 151.85 272.279 151.031 273.34C151.031 273.34 153.231 274.12 151.951 276.98C152.32 278.167 152.396 279.427 152.171 280.65C151.811 282.79 147.951 286.84 147.951 286.84L128.651 296L120.891 282.84L129.061 278.62Z" fill="#FFBE9D"/>
<path d="M84.2504 265.46L96.5904 291.8L124 279.92C124 279.92 135.35 286.54 133.78 293.78L109.08 314C106.772 315.896 104.102 317.304 101.233 318.138C98.3642 318.972 95.3558 319.214 92.3904 318.85V318.85C89.2088 318.461 86.15 317.383 83.4267 315.693C80.7034 314.002 78.3809 311.739 76.6204 309.06L58.7804 281.94L48.7804 265.63C47.1785 263.09 46.3636 260.133 46.4383 257.131C46.513 254.129 47.4741 251.217 49.2004 248.76C50.1432 247.434 51.3396 246.309 52.7204 245.45C57.1904 242.74 70.4304 241.56 84.2504 265.46Z" fill="#9724C5"/>
<path d="M144.93 267C143.698 268.062 142.358 268.99 140.93 269.77C139.586 270.695 138.152 271.483 136.65 272.12C137.892 271.071 139.231 270.143 140.65 269.35C141.998 268.43 143.431 267.643 144.93 267V267Z" fill="#EB996E"/>
<path d="M152.64 266.74C151.571 268.146 150.369 269.445 149.05 270.62C147.848 271.911 146.533 273.092 145.12 274.15C146.195 272.749 147.397 271.45 148.71 270.27C149.912 268.978 151.227 267.796 152.64 266.74V266.74Z" fill="#EB996E"/>
<path d="M151.61 272.68C151.186 273.552 150.618 274.346 149.93 275.03C148.93 276.24 147.93 277.16 147.87 277.03C148.298 276.155 148.87 275.357 149.56 274.67C150.128 273.897 150.821 273.225 151.61 272.68Z" fill="#EB996E"/>
<path d="M152.001 276.68C152.111 276.77 151.681 277.41 151.141 278.19C150.601 278.97 150.141 279.59 150.011 279.52C149.881 279.45 150.181 278.71 150.741 277.91C151.301 277.11 151.871 276.59 152.001 276.68Z" fill="#EB996E"/>
<path d="M104.88 316.64C104.88 316.64 104.88 316.59 105 316.52L105.39 316.19L106.94 314.94L112.86 310.26L134 293.72L133.91 293.89C133.921 292.518 133.659 291.159 133.14 289.89C132.547 288.56 131.784 287.313 130.87 286.18C128.872 283.819 126.508 281.794 123.87 280.18H124.1L109.93 286.34L96.69 292L96.47 292.09L96.36 291.88C92.73 284.73 89.36 278.01 85.98 272.17C84.29 269.24 82.62 266.53 81.04 264C79.46 261.47 78.04 259.13 76.55 257.11C74.3571 253.855 71.4411 251.151 68.03 249.21C67.44 248.86 66.89 248.59 66.41 248.36C65.93 248.13 65.54 247.94 65.2 247.8L64.46 247.47C64.3725 247.439 64.2887 247.399 64.21 247.35C67.1768 248.367 69.9201 249.945 72.29 252C73.9894 253.484 75.5096 255.162 76.82 257C78.32 259 79.82 261.36 81.37 263.88C82.92 266.4 84.66 269.1 86.37 272.03C89.81 277.87 93.18 284.59 96.83 291.73L96.5 291.61L109.69 285.87L123.86 279.72L123.98 279.67L124.09 279.74C126.777 281.392 129.181 283.465 131.21 285.88C132.145 287.053 132.927 288.34 133.54 289.71C134.075 291.059 134.343 292.498 134.33 293.95V294.05L134.24 294.12L113 310.47L107 315.05L105.41 316.25L104.99 316.55L104.88 316.64Z" fill="#263238"/>
<path d="M94.9305 300.08C94.7805 300.02 95.5405 298.14 95.9305 295.71C96.3205 293.28 96.3305 291.25 96.4905 291.24C96.8301 292.741 96.8301 294.299 96.4905 295.8C96.3004 297.326 95.7671 298.789 94.9305 300.08V300.08Z" fill="#263238"/>
<path d="M245.46 377.45L259.79 395.4C259.79 395.4 282.85 386.87 285.79 389.93L252 419L228.53 392L245.46 377.45Z" fill="#9724C5"/>
<g opacity="0.6">
<path opacity="0.6" d="M248.081 402.92C247.84 403.297 247.748 403.75 247.822 404.192C247.896 404.633 248.13 405.031 248.481 405.31C248.849 405.565 249.302 405.668 249.744 405.599C250.187 405.531 250.587 405.295 250.861 404.94C251.113 404.537 251.208 404.054 251.127 403.586C251.046 403.117 250.794 402.695 250.421 402.4C250.007 402.176 249.524 402.121 249.071 402.246C248.618 402.371 248.231 402.666 247.991 403.07" fill="white"/>
</g>
<g opacity="0.6">
<path opacity="0.6" d="M252 419L249.74 416.18L283 389.36C283 389.36 285.07 388.72 285.81 389.93L252 419Z" fill="white"/>
</g>
<path d="M260.191 394.76C260.331 394.93 259.571 395.76 259.191 396.94C258.811 398.12 259.001 399.24 258.791 399.3C258.581 399.36 258.011 398.2 258.471 396.72C258.931 395.24 260.101 394.58 260.191 394.76Z" fill="#263238"/>
<path d="M265 393.18C265.17 393.31 264.7 394.18 264.74 395.39C264.78 396.6 265.25 397.44 265.08 397.58C264.91 397.72 264 396.87 263.98 395.4C263.96 393.93 264.86 393 265 393.18Z" fill="#263238"/>
<path d="M270.66 395.7C270.54 395.86 269.6 395.23 269.24 393.97C268.88 392.71 269.36 391.68 269.54 391.75C269.72 391.82 269.67 392.75 269.97 393.75C270.27 394.75 270.81 395.54 270.66 395.7Z" fill="#263238"/>
<path d="M256.47 391C256.53 391.21 255.58 391.64 254.7 392.5C253.82 393.36 253.35 394.28 253.14 394.22C252.93 394.16 253.14 392.96 254.14 391.96C255.14 390.96 256.44 390.83 256.47 391Z" fill="#263238"/>
<g opacity="0.3">
<path opacity="0.3" d="M248.3 381.01L250.85 384.21L234.11 398.33L231.69 395.55L248.3 381.01Z" fill="black"/>
</g>
<path d="M253.51 387.47C253.58 387.53 253.01 388.19 251.81 388.91C251.11 389.334 250.361 389.67 249.58 389.91C249.113 390.046 248.639 390.152 248.16 390.23C247.878 390.272 247.591 390.272 247.31 390.23C247.103 390.197 246.912 390.101 246.763 389.953C246.614 389.806 246.515 389.616 246.48 389.41C246.462 389.223 246.489 389.035 246.559 388.862C246.629 388.688 246.739 388.533 246.88 388.41C247.089 388.217 247.329 388.062 247.59 387.95C248.765 387.352 250.071 387.057 251.39 387.09C252.153 387.034 252.914 387.216 253.57 387.61C253.57 387.73 252.71 387.54 251.4 387.61C250.638 387.669 249.885 387.82 249.16 388.06C248.736 388.206 248.324 388.387 247.93 388.6C247.49 388.81 247.18 389.07 247.23 389.31C247.23 389.4 247.23 389.42 247.43 389.46C247.639 389.488 247.851 389.488 248.06 389.46C248.507 389.4 248.951 389.316 249.39 389.21C250.135 389.015 250.861 388.754 251.56 388.43C252.185 388.061 252.837 387.74 253.51 387.47V387.47Z" fill="#263238"/>
<path d="M253.5 387.89C253.5 387.96 252.63 387.65 251.65 386.63C250.74 385.669 250.114 384.475 249.84 383.18C249.74 382.878 249.719 382.556 249.781 382.244C249.842 381.932 249.983 381.641 250.19 381.4C250.341 381.27 250.528 381.189 250.725 381.165C250.923 381.142 251.123 381.179 251.3 381.27C251.558 381.392 251.797 381.55 252.01 381.74C252.52 382.18 252.937 382.717 253.238 383.319C253.538 383.922 253.716 384.578 253.76 385.25C253.86 386.69 253.34 387.48 253.27 387.44C253.318 386.731 253.318 386.019 253.27 385.31C253.15 384.573 252.866 383.873 252.44 383.26C252.2 382.902 251.906 382.581 251.57 382.31C251.21 382 250.83 381.82 250.72 381.97C250.626 382.13 250.567 382.308 250.548 382.493C250.529 382.678 250.551 382.864 250.61 383.04C250.688 383.475 250.812 383.901 250.98 384.31C251.256 385.027 251.633 385.701 252.1 386.31C252.86 387.32 253.57 387.78 253.5 387.89Z" fill="#263238"/>
<path d="M229.89 432.79L229 456.27C229 456.27 252.57 465.06 252.83 469.42L207.23 469.33L207.12 432.68L229.89 432.79Z" fill="#9724C5"/>
<g opacity="0.6">
<path opacity="0.6" d="M214.9 454.27C214.462 454.402 214.088 454.692 213.85 455.083C213.612 455.474 213.527 455.94 213.61 456.39C213.731 456.832 214.014 457.212 214.404 457.454C214.794 457.695 215.261 457.779 215.71 457.69C216.171 457.54 216.561 457.229 216.81 456.813C217.058 456.398 217.147 455.906 217.06 455.43C216.891 454.982 216.555 454.616 216.123 454.409C215.691 454.202 215.196 454.17 214.74 454.32" fill="white"/>
</g>
<g opacity="0.6">
<path opacity="0.6" d="M207.23 469.33L207.37 465.63L251 467.1C251 467.1 253 467.99 252.8 469.42L207.23 469.33Z" fill="white"/>
</g>
<path d="M229.741 456C229.741 456.22 228.621 456.32 227.521 457C226.421 457.68 225.841 458.64 225.631 458.55C225.421 458.46 225.761 457.18 227.111 456.34C228.461 455.5 229.791 455.84 229.741 456Z" fill="#263238"/>
<path d="M234.52 458C234.52 458.21 233.6 458.59 232.84 459.53C232.08 460.47 231.84 461.47 231.64 461.46C231.44 461.45 231.28 460.19 232.25 459.04C233.22 457.89 234.51 457.82 234.52 458Z" fill="#263238"/>
<path d="M237.22 463.76C237.02 463.76 236.71 462.69 237.29 461.47C237.87 460.25 238.9 459.77 239 459.96C239.1 460.15 238.44 460.79 238 461.8C237.56 462.81 237.44 463.74 237.22 463.76Z" fill="#263238"/>
<path d="M229.35 450.67C229.25 450.87 228.23 450.56 226.97 450.67C225.71 450.78 224.73 451.15 224.62 450.96C224.51 450.77 225.45 449.96 226.93 449.9C228.41 449.84 229.46 450.49 229.35 450.67Z" fill="#263238"/>
<g opacity="0.3">
<path opacity="0.3" d="M229.71 437.44L229.56 441.62L207.15 441.38L207.13 437.6L229.71 437.44Z" fill="black"/>
</g>
<path d="M229.44 445.92C228.695 446.131 227.906 446.131 227.16 445.92C225.847 445.68 224.591 445.191 223.46 444.48C223.202 444.34 222.968 444.158 222.77 443.94C222.63 443.78 222.545 443.579 222.527 443.366C222.509 443.154 222.559 442.942 222.67 442.76C222.786 442.603 222.936 442.475 223.11 442.386C223.284 442.298 223.476 442.251 223.67 442.25C223.958 442.249 224.244 442.289 224.52 442.37C225.836 442.691 227.05 443.337 228.05 444.25C229.1 445.25 229.46 446.06 229.38 446.1C229.3 446.14 228.77 445.48 227.7 444.67C227.083 444.206 226.412 443.82 225.7 443.52C225.277 443.345 224.838 443.207 224.39 443.11C223.91 442.98 223.5 442.98 223.39 443.19C223.28 443.4 223.34 443.31 223.44 443.45C223.591 443.604 223.763 443.735 223.95 443.84C224.334 444.098 224.735 444.328 225.15 444.53C225.858 444.884 226.598 445.168 227.36 445.38C228.065 445.516 228.759 445.696 229.44 445.92Z" fill="#263238"/>
<path d="M229.15 446.24C228.716 445.591 228.505 444.819 228.55 444.04C228.495 442.686 228.806 441.342 229.45 440.15C229.575 439.849 229.774 439.585 230.03 439.384C230.286 439.183 230.589 439.05 230.91 439C231.121 438.996 231.329 439.054 231.507 439.168C231.685 439.282 231.825 439.446 231.91 439.64C232.026 439.908 232.107 440.19 232.15 440.48C232.249 441.162 232.212 441.857 232.04 442.525C231.868 443.193 231.566 443.82 231.15 444.37C230.25 445.55 229.32 445.82 229.3 445.74C229.28 445.66 230.01 445.2 230.69 444.07C231.087 443.415 231.337 442.681 231.42 441.92C231.48 441.482 231.48 441.038 231.42 440.6C231.35 440.12 231.17 439.73 230.99 439.78C230.81 439.83 230.37 440.14 230.18 440.52C229.956 440.915 229.769 441.33 229.62 441.76C229.36 442.494 229.208 443.262 229.17 444.04C229 445.38 229.27 446.21 229.15 446.24Z" fill="#263238"/>
<path d="M206.771 321.75L251.891 381.71L230.781 399.84L209.061 371.43L206.771 321.75Z" fill="#263238"/>
<path d="M111.23 324.62C111.23 324.62 183.83 302.5 190.48 302.78C197.13 303.06 209.75 327.07 209.75 327.07L189.37 326.33C184.14 339.16 174.48 352.33 163.6 365.67L121.93 363.73L111.23 324.62Z" fill="#263238"/>
<path d="M170.57 307.14C170.57 307.28 163.15 309.62 153.91 312.37C144.67 315.12 137.14 317.23 137.1 317.09C137.06 316.95 144.51 314.61 153.76 311.87C163.01 309.13 170.53 307 170.57 307.14Z" fill="#263238"/>
<path d="M187.44 325.94H207.82C212.78 325.944 217.617 327.484 221.666 330.349C225.715 333.214 228.777 337.264 230.43 341.94V341.94C232.019 346.449 232.718 351.224 232.49 356L230.9 439H203.47L202.97 412.5L199.5 362.13L175.75 363.13L162.29 362.29L187.44 325.94Z" fill="#263238"/>
<path d="M188.05 325.53C187.959 326.121 187.829 326.706 187.66 327.28C187.268 328.865 186.787 330.428 186.22 331.96C185.391 334.233 184.388 336.44 183.22 338.56C181.765 341.16 180.093 343.632 178.22 345.95C174.765 350.072 171.065 353.982 167.14 357.66L163.62 361.05C163.207 361.482 162.759 361.88 162.28 362.24C162.647 361.767 163.044 361.32 163.47 360.9C164.26 360.06 165.47 358.9 166.88 357.4C170.72 353.66 174.368 349.728 177.81 345.62C181.169 341.45 183.886 336.802 185.87 331.83C186.59 329.91 187.14 328.33 187.46 327.23C187.611 326.648 187.808 326.08 188.05 325.53V325.53Z" fill="#455A64"/>
<path d="M213 326.5C211.761 326.503 210.523 326.443 209.29 326.32C207.01 326.19 203.85 326.1 200.37 326.17C196.89 326.24 193.73 326.45 191.44 326.6C190.212 326.741 188.976 326.805 187.74 326.79C188.063 326.677 188.399 326.607 188.74 326.58C189.37 326.48 190.29 326.36 191.43 326.23C193.71 325.99 196.87 325.72 200.43 325.65C203.434 325.579 206.439 325.682 209.43 325.96C210.57 326.06 211.49 326.19 212.13 326.29C212.427 326.328 212.719 326.398 213 326.5Z" fill="#455A64"/>
<path d="M203.35 423.8C203.303 423.573 203.276 423.342 203.27 423.11C203.27 422.6 203.21 421.95 203.16 421.11C203.08 419.32 202.97 416.84 202.84 413.81C202.57 407.65 202.2 399.14 201.61 389.75C201.02 380.36 200.32 371.86 199.81 365.75C199.56 362.75 199.36 360.25 199.22 358.47C199.16 357.65 199.12 356.99 199.08 356.47C199.051 356.238 199.051 356.002 199.08 355.77C199.132 355.997 199.169 356.228 199.19 356.46L199.43 358.46C199.62 360.23 199.87 362.7 200.19 365.72C200.79 371.86 201.54 380.36 202.14 389.72C202.74 399.08 203.04 407.64 203.22 413.81C203.28 416.81 203.34 419.32 203.38 421.11C203.38 421.93 203.38 422.59 203.38 423.11C203.396 423.34 203.386 423.572 203.35 423.8V423.8Z" fill="#263238"/>
<path d="M232.53 352.84C232.68 352.84 232.58 371.84 232.32 395.27C232.06 418.7 231.72 437.7 231.58 437.7C231.44 437.7 231.53 418.7 231.8 395.26C232.07 371.82 232.39 352.84 232.53 352.84Z" fill="#455A64"/>
<path d="M210.151 349.74C208.137 350.527 206.18 351.449 204.291 352.5C202.5 353.717 200.793 355.054 199.181 356.5C199.489 355.93 199.895 355.418 200.381 354.99C202.57 352.756 205.276 351.097 208.261 350.16C208.862 349.912 209.501 349.77 210.151 349.74V349.74Z" fill="#263238"/>
<g opacity="0.3">
<path opacity="0.3" d="M162.29 362.25C167.83 363.25 173.9 361.58 178.64 358.62C183.373 355.662 186.805 351.014 188.24 345.62C188.85 343.23 189.03 340.75 189.64 338.36C190.121 335.906 191.431 333.693 193.35 332.09C195.67 330.36 201.35 329.26 203.09 326.94C203.09 326.6 196.31 327.38 194.04 327.51C191.56 327.64 187.41 328.27 187.5 327.98C186.844 330.383 186.042 332.744 185.1 335.05C180.16 343.54 169.31 356.05 162.29 362.29" fill="black"/>
</g>
<path d="M49.1602 420.94L56.8802 471.41H64.5302L60.7602 421.14L49.1602 420.94Z" fill="#263238"/>
<path d="M184.95 421.14V471.41H193.03L196.04 420.94L184.95 421.14Z" fill="#263238"/>
<path d="M47.7902 265C47.7902 265 36.9802 265.43 33.6702 270C27.8402 278 31.1202 284.92 30.7902 287.28C30.4602 289.64 49.1602 420.94 49.1602 420.94H56.8602L196 422.23L202.72 406L199.5 362.09L162.29 362.25C162.29 362.25 147.05 318.51 133.73 315.59C124.73 313.59 103.52 314.31 90.7302 314.97C87.6055 315.132 84.4933 314.468 81.7071 313.044C78.9209 311.62 76.5593 309.487 74.8602 306.86L47.7902 265Z" fill="#455A64"/>
<path d="M171.15 415.78C171.15 415.78 170.38 415.88 168.9 415.95C167.42 416.02 165.24 416.07 162.42 416.09C156.77 416.17 148.58 416.19 138.42 416.18C118.01 416.18 89.5601 416.01 57.4201 415.73H57.2101V415.53C56.6301 412.78 56.0401 409.95 55.4401 407.08C54.8401 404.21 54.2701 401.27 53.6801 398.32C46.6801 362.7 42.6001 330.06 40.4001 306.39C39.2901 294.56 38.6301 284.96 38.2101 278.32C38.0301 275.02 37.8801 272.45 37.7901 270.68C37.7901 269.82 37.7201 269.16 37.6901 268.68C37.6601 268.2 37.6901 268 37.6901 268C37.6901 268 37.6901 268.23 37.7601 268.68C37.8301 269.13 37.8401 269.81 37.9001 270.68C38.0201 272.44 38.2001 275.01 38.4201 278.31C38.9001 284.94 39.6201 294.53 40.7701 306.36C43.0001 330 47.1101 362.61 54.0901 398.21C54.6768 401.163 55.2634 404.08 55.8501 406.96C56.4368 409.84 57.0268 412.657 57.6201 415.41L57.3701 415.21L138.37 415.84L162.37 415.9H168.85C169.59 415.9 170.14 415.84 170.52 415.84L171.15 415.78Z" fill="#263238"/>
<path d="M169.68 422C169.673 421.788 169.693 421.576 169.74 421.37C169.81 420.91 169.89 420.32 170 419.6C170.11 418.88 170.28 417.89 170.4 416.79C170.52 415.69 170.72 414.45 170.81 413.06C170.9 411.67 171.08 410.17 171.14 408.53C171.2 406.89 171.25 405.16 171.28 403.32C171.261 399.337 171.027 395.358 170.58 391.4C170.098 387.447 169.411 383.521 168.52 379.64C167.68 376.06 166.78 372.88 165.91 370.23C165.52 368.9 165.07 367.73 164.71 366.68C164.35 365.63 164.02 364.74 163.71 364.02L163.09 362.34C163.004 362.149 162.944 361.947 162.91 361.74C163.022 361.917 163.116 362.104 163.19 362.3L163.9 363.94C164.21 364.66 164.58 365.54 164.9 366.58C165.22 367.62 165.76 368.79 166.18 370.12C167.09 372.75 168.04 375.94 168.91 379.53C169.829 383.425 170.533 387.368 171.02 391.34C171.465 395.324 171.686 399.331 171.68 403.34C171.68 405.19 171.62 406.94 171.49 408.58C171.36 410.22 171.25 411.74 171.1 413.12C170.95 414.5 170.76 415.76 170.6 416.85C170.44 417.94 170.28 418.85 170.12 419.65C169.96 420.45 169.85 420.95 169.76 421.41C169.753 421.609 169.726 421.806 169.68 422V422Z" fill="#263238"/>
<path d="M67.6904 327.87C67.8613 327.695 68.0489 327.538 68.2504 327.4C68.6804 327.07 69.2504 326.65 69.9304 326.11L71.1604 325.2C71.6204 324.89 72.1604 324.59 72.7104 324.25C73.9526 323.447 75.2453 322.726 76.5804 322.09L78.9004 321C79.7004 320.6 80.5904 320.31 81.4804 319.94C82.3704 319.57 83.3004 319.19 84.2804 318.88L87.2804 317.88C91.8115 316.546 96.4434 315.583 101.13 315C105.801 314.383 110.509 314.096 115.22 314.14C117.39 314.14 119.45 314.28 121.38 314.35C123.31 314.42 125.09 314.65 126.72 314.88C129.291 315.211 131.841 315.681 134.36 316.29L136.36 316.85C136.599 316.908 136.833 316.985 137.06 317.08C136.813 317.06 136.569 317.017 136.33 316.95L134.27 316.48C132.49 316.11 129.88 315.62 126.63 315.25C125.01 315.04 123.22 314.94 121.31 314.78C119.4 314.62 117.31 314.57 115.17 314.62C110.489 314.608 105.812 314.905 101.17 315.51C96.5209 316.092 91.9237 317.035 87.4204 318.33L84.4204 319.26C83.4204 319.56 82.5304 319.96 81.6304 320.26C80.7304 320.56 79.8504 320.9 79.0504 321.26C78.2504 321.62 77.4704 322 76.7304 322.35C75.3977 322.967 74.1022 323.661 72.8504 324.43C72.2904 324.75 71.7604 325.04 71.2804 325.33L70.0404 326.21L68.3104 327.41C68.118 327.581 67.9105 327.735 67.6904 327.87V327.87Z" fill="#263238"/>
<path d="M150.41 335C150.41 335 150.41 335.11 150.31 335.33C150.21 335.55 150.14 335.86 149.97 336.28C149.452 337.465 148.761 338.567 147.92 339.55C146.561 341.093 144.931 342.374 143.11 343.33C141.971 343.914 140.788 344.405 139.57 344.8C138.192 345.21 136.78 345.498 135.35 345.66C132.074 345.94 128.774 345.751 125.55 345.1C122.06 344.48 118.43 343.47 114.55 342.55C110.562 341.496 106.456 340.952 102.33 340.93C100.161 340.961 98.0061 341.298 95.9303 341.93C93.7953 342.588 91.787 343.602 89.9903 344.93C86.4928 347.643 83.5465 351 81.3103 354.82C79.0203 358.45 77.2103 362.2 75.3103 365.67C73.5519 368.988 71.454 372.115 69.0503 375C66.9485 377.548 64.3266 379.617 61.3603 381.07C58.8975 382.257 56.213 382.915 53.4803 383C51.424 383.05 49.3801 382.668 47.4803 381.88C46.781 381.588 46.1112 381.23 45.4803 380.81C44.9603 380.42 44.4803 380.08 44.2003 379.81L43.5103 379.08C43.3503 378.91 43.2803 378.82 43.2803 378.82C43.2803 378.82 43.3803 378.89 43.5403 379.04L44.2703 379.73C44.6003 380.01 45.0503 380.33 45.5603 380.73C46.1954 381.123 46.8648 381.458 47.5603 381.73C49.4403 382.467 51.4524 382.808 53.4703 382.73C56.1499 382.633 58.7809 381.986 61.2003 380.83C64.1055 379.384 66.6717 377.339 68.7303 374.83C71.0982 371.943 73.1624 368.82 74.8903 365.51C76.8003 362.05 78.6103 358.29 80.8903 354.62C83.1612 350.754 86.1518 347.36 89.7003 344.62C91.5423 343.263 93.5969 342.223 95.7803 341.54C97.9067 340.905 100.111 340.568 102.33 340.54C106.501 340.567 110.651 341.125 114.68 342.2C118.53 343.14 122.15 344.2 125.6 344.8C128.79 345.451 132.054 345.657 135.3 345.41C136.705 345.264 138.094 344.992 139.45 344.6C140.656 344.225 141.83 343.753 142.96 343.19C144.761 342.268 146.384 341.032 147.75 339.54C148.9 338.197 149.801 336.66 150.41 335V335Z" fill="white"/>
<path d="M201.27 399L200.83 399.11L199.54 399.37C198.861 399.537 198.193 399.748 197.54 400C197.113 400.153 196.695 400.334 196.29 400.54C195.816 400.747 195.355 400.984 194.91 401.25C192.598 402.582 190.448 404.176 188.5 406C186.18 408.1 183.7 410.67 180.66 413.2C179.08 414.548 177.356 415.718 175.52 416.69C174.54 417.208 173.52 417.65 172.47 418.01L170.82 418.46C170.256 418.587 169.685 418.684 169.11 418.75C166.704 419.042 164.266 418.921 161.9 418.39C159.404 417.805 156.992 416.908 154.72 415.72C149.899 413.122 145.437 409.905 141.45 406.15C137.25 402.34 132.96 398.31 127.96 395.01C125.511 393.365 122.859 392.044 120.07 391.08C117.363 390.16 114.506 389.763 111.65 389.91C108.896 390.1 106.192 390.749 103.65 391.83C101.205 392.869 98.8477 394.103 96.6005 395.52C92.1805 398.25 88.1605 401.17 84.0705 403.4C74.7045 408.439 64.0071 410.451 53.4505 409.16C51.1764 408.9 48.9284 408.448 46.7305 407.81C46.8818 407.824 47.0321 407.847 47.1805 407.88L48.4705 408.16C49.6005 408.4 51.2905 408.71 53.4705 408.96C59.6536 409.643 65.9091 409.213 71.9405 407.69C76.0951 406.634 80.1 405.058 83.8605 403C87.8605 400.77 91.9205 397.85 96.3505 395.09C98.616 393.654 100.994 392.403 103.46 391.35C106.05 390.234 108.808 389.558 111.62 389.35C114.54 389.194 117.463 389.598 120.23 390.54C123.062 391.514 125.752 392.859 128.23 394.54C133.29 397.87 137.59 401.92 141.78 405.73C145.731 409.461 150.152 412.662 154.93 415.25C157.16 416.465 159.536 417.389 162 418C164.311 418.532 166.696 418.66 169.05 418.38C169.615 418.317 170.176 418.224 170.73 418.1L172.35 417.68C173.381 417.324 174.384 416.893 175.35 416.39C177.17 415.444 178.877 414.297 180.44 412.97C183.44 410.48 185.98 407.97 188.32 405.85C190.282 404.008 192.454 402.404 194.79 401.07C195.244 400.808 195.715 400.577 196.2 400.38C196.609 400.17 197.034 399.993 197.47 399.85C198.149 399.615 198.84 399.418 199.54 399.26L200.84 399.05L201.27 399Z" fill="white"/>
<path d="M62.1003 289.72C62.0672 290.15 61.9763 290.574 61.8304 290.98C61.4971 292.113 61.048 293.209 60.4904 294.25C58.6734 297.737 55.8308 300.584 52.3459 302.406C48.8609 304.228 44.9012 304.938 41.0004 304.44C39.83 304.304 38.6771 304.046 37.5604 303.67C37.1405 303.555 36.7372 303.387 36.3604 303.17C37.8968 303.584 39.4608 303.888 41.0404 304.08C44.8609 304.471 48.7123 303.732 52.1166 301.955C55.5209 300.177 58.3283 297.439 60.1903 294.08C60.9252 292.671 61.5634 291.215 62.1003 289.72V289.72Z" fill="white"/>
<path d="M375.05 158.32H185.99C182.157 158.32 179.05 161.427 179.05 165.26V216.44C179.05 220.273 182.157 223.38 185.99 223.38H375.05C378.883 223.38 381.99 220.273 381.99 216.44V165.26C381.99 161.427 378.883 158.32 375.05 158.32Z" fill="white"/>
<path d="M375 223.38C375.449 223.35 375.896 223.297 376.34 223.22C377.639 222.956 378.834 222.32 379.78 221.39C380.482 220.721 381.028 219.905 381.38 219C381.787 217.902 381.954 216.729 381.87 215.56C381.87 213.01 381.87 210.06 381.87 206.75C381.87 200.11 381.87 192 381.87 182.59C381.87 177.88 381.87 172.84 381.87 167.5C381.957 166.162 381.876 164.818 381.63 163.5C381.275 162.158 380.516 160.958 379.454 160.063C378.393 159.169 377.082 158.623 375.7 158.5C374.29 158.44 372.8 158.5 371.32 158.5L186 158.58C184.908 158.581 183.834 158.849 182.87 159.36C181.909 159.87 181.086 160.604 180.47 161.5C179.864 162.398 179.481 163.426 179.35 164.5C179.26 165.56 179.35 166.72 179.35 167.82V181.13C179.35 189.943 179.35 198.61 179.35 207.13V213.5C179.35 214.56 179.35 215.62 179.35 216.66C179.391 217.673 179.657 218.663 180.13 219.56C180.603 220.445 181.268 221.213 182.076 221.808C182.884 222.403 183.814 222.811 184.8 223C185.795 223.111 186.798 223.148 187.8 223.11H215L298.29 223.17L354.44 223.25L369.71 223.3H373.71H375.06C375.06 223.3 374.61 223.3 373.71 223.3H369.71H354.44L298.29 223.38L215 223.44H187.84C186.795 223.484 185.748 223.444 184.71 223.32C183.096 223.031 181.63 222.197 180.556 220.958C179.483 219.718 178.866 218.149 178.81 216.51C178.81 215.44 178.81 214.4 178.81 213.34V167.64C178.81 166.51 178.81 165.44 178.86 164.26C178.99 163.096 179.403 161.981 180.064 161.014C180.725 160.046 181.612 159.255 182.65 158.71C183.687 158.159 184.844 157.871 186.02 157.87L371.29 157.95C372.78 157.95 374.23 157.95 375.7 157.95C377.15 158.083 378.526 158.657 379.64 159.596C380.754 160.535 381.553 161.793 381.93 163.2C382.108 163.875 382.189 164.572 382.17 165.27V167.27C382.17 172.61 382.17 177.65 382.17 182.36C382.17 191.77 382.17 199.88 382.17 206.52C382.17 209.83 382.17 212.78 382.17 215.33C382.253 216.517 382.076 217.709 381.65 218.82C381.209 219.896 380.508 220.845 379.608 221.582C378.709 222.318 377.641 222.82 376.5 223.04C376.169 223.1 375.835 223.137 375.5 223.15L375 223.38Z" fill="#263238"/>
<path d="M367.37 171.67C367.303 171.671 367.238 171.646 367.19 171.6C367.143 171.552 367.117 171.487 367.117 171.42C367.117 171.353 367.143 171.289 367.19 171.24L372.19 166.45C372.238 166.404 372.302 166.378 372.37 166.378C372.437 166.378 372.501 166.404 372.55 166.45C372.595 166.497 372.621 166.56 372.621 166.625C372.621 166.691 372.595 166.754 372.55 166.8L367.55 171.59C367.527 171.616 367.499 171.636 367.468 171.65C367.437 171.663 367.404 171.67 367.37 171.67Z" fill="#263238"/>
<path d="M372.35 171.69C372.318 171.691 372.287 171.686 372.257 171.674C372.228 171.662 372.202 171.643 372.18 171.62L367.23 166.79C367.206 166.768 367.187 166.741 367.174 166.71C367.161 166.68 367.154 166.648 367.154 166.615C367.154 166.582 367.161 166.55 367.174 166.52C367.187 166.49 367.206 166.463 367.23 166.44C367.277 166.394 367.34 166.369 367.405 166.369C367.47 166.369 367.533 166.394 367.58 166.44L372.58 171.28C372.626 171.327 372.652 171.39 372.652 171.455C372.652 171.521 372.626 171.583 372.58 171.63C372.55 171.659 372.513 171.68 372.473 171.691C372.433 171.701 372.39 171.701 372.35 171.69V171.69Z" fill="#263238"/>
<path d="M222.78 203.49L220.78 200.6C219.55 198.86 218.89 196.781 218.89 194.65V188.15C218.89 185.617 217.982 183.168 216.331 181.247C214.679 179.326 212.394 178.06 209.89 177.68V174.58C209.89 174.201 209.739 173.837 209.471 173.569C209.203 173.301 208.839 173.15 208.46 173.15C208.272 173.15 208.087 173.187 207.914 173.259C207.741 173.331 207.584 173.436 207.452 173.569C207.32 173.702 207.216 173.86 207.145 174.033C207.074 174.207 207.038 174.393 207.04 174.58V177.58C204.461 177.886 202.085 179.127 200.36 181.067C198.635 183.008 197.681 185.513 197.68 188.11V194.84C197.678 197.154 196.9 199.4 195.47 201.22L193.72 203.45L222.78 203.49Z" fill="#9724C5"/>
<path d="M206.709 208.21C207.5 208.531 208.365 208.624 209.206 208.479C210.047 208.334 210.831 207.957 211.469 207.39C212.016 206.887 212.429 206.254 212.669 205.55L204.199 205.49C204.406 206.093 204.736 206.646 205.168 207.114C205.6 207.583 206.125 207.956 206.709 208.21V208.21Z" fill="#9724C5"/>
<path d="M337 180.3C337 180.44 314.27 180.56 286.23 180.56C258.19 180.56 235.46 180.44 235.46 180.3C235.46 180.16 258.19 180.04 286.23 180.04C314.27 180.04 337 180.16 337 180.3Z" fill="#263238"/>
<path d="M360.879 192.59C360.879 192.73 332.789 192.85 298.149 192.85C263.509 192.85 235.409 192.73 235.409 192.59C235.409 192.45 263.489 192.33 298.149 192.33C332.809 192.33 360.879 192.44 360.879 192.59Z" fill="#E0E0E0"/>
<path d="M360.879 200C360.879 200.14 332.789 200.26 298.149 200.26C263.509 200.26 235.409 200.14 235.409 200C235.409 199.86 263.489 199.74 298.149 199.74C332.809 199.74 360.879 199.8 360.879 200Z" fill="#E0E0E0"/>
<path d="M342.58 233.54H217.03C213.197 233.54 210.09 236.647 210.09 240.48V271.3C210.09 275.133 213.197 278.24 217.03 278.24H342.58C346.413 278.24 349.52 275.133 349.52 271.3V240.48C349.52 236.647 346.413 233.54 342.58 233.54Z" fill="#FAFAFA"/>
<path d="M342.58 278.24C342.58 278.24 342.89 278.24 343.49 278.14C344.38 278.023 345.237 277.727 346.01 277.27C347.039 276.669 347.894 275.811 348.492 274.781C349.09 273.75 349.409 272.582 349.42 271.39V268.2C349.42 263.68 349.42 258.2 349.37 251.77C349.37 248.57 349.37 245.14 349.37 241.51C349.417 240.604 349.343 239.696 349.15 238.81C348.924 237.911 348.512 237.07 347.94 236.34C347.354 235.579 346.611 234.954 345.763 234.505C344.914 234.057 343.978 233.796 343.02 233.74L217.02 233.8C215.539 233.799 214.099 234.289 212.926 235.193C211.753 236.098 210.914 237.367 210.54 238.8C210.364 239.516 210.294 240.254 210.33 240.99V243.26C210.33 244.77 210.33 246.26 210.33 247.77V269.77C210.33 270.49 210.33 271.22 210.33 271.9C210.404 272.588 210.576 273.261 210.84 273.9C211.385 275.158 212.299 276.22 213.462 276.945C214.625 277.67 215.981 278.024 217.35 277.96H233.72L290.35 278.01L328.54 278.1L338.92 278.15H341.62H342.54C342.54 278.15 342.22 278.15 341.62 278.15H338.92H328.54L290.35 278.23L233.72 278.29H217.39C215.919 278.358 214.462 277.977 213.212 277.199C211.962 276.42 210.978 275.28 210.39 273.93C210.112 273.245 209.93 272.525 209.85 271.79C209.79 271.03 209.85 270.33 209.85 269.61V241C209.813 240.22 209.89 239.438 210.08 238.68C210.478 237.128 211.383 235.753 212.651 234.773C213.919 233.793 215.477 233.264 217.08 233.27L343.08 233.36C344.583 233.456 346.016 234.027 347.173 234.991C348.331 235.954 349.152 237.26 349.52 238.72C349.721 239.632 349.795 240.568 349.74 241.5C349.74 245.13 349.74 248.56 349.74 251.76C349.74 258.16 349.74 263.67 349.74 268.19C349.74 269.31 349.74 270.38 349.74 271.38C349.728 272.329 349.52 273.265 349.13 274.13C348.516 275.485 347.491 276.612 346.2 277.35C345.413 277.801 344.542 278.087 343.64 278.19C343.289 278.236 342.934 278.253 342.58 278.24Z" fill="#263238"/>
<path d="M339.479 242.79C339.446 242.79 339.412 242.782 339.381 242.769C339.35 242.755 339.322 242.735 339.299 242.71C339.275 242.688 339.256 242.661 339.243 242.63C339.23 242.6 339.224 242.568 339.224 242.535C339.224 242.502 339.23 242.47 339.243 242.44C339.256 242.41 339.275 242.383 339.299 242.36L342.729 239.07C342.753 239.046 342.781 239.027 342.812 239.014C342.843 239 342.876 238.994 342.909 238.994C342.943 238.994 342.976 239 343.007 239.014C343.038 239.027 343.066 239.046 343.089 239.07C343.135 239.117 343.161 239.18 343.161 239.245C343.161 239.311 343.135 239.373 343.089 239.42L339.649 242.71C339.628 242.735 339.602 242.755 339.573 242.768C339.544 242.782 339.512 242.79 339.479 242.79V242.79Z" fill="#263238"/>
<path d="M342.9 242.8C342.833 242.801 342.768 242.776 342.72 242.73L339.32 239.41C339.283 239.362 339.266 239.303 339.27 239.243C339.274 239.182 339.3 239.126 339.343 239.083C339.385 239.041 339.442 239.015 339.502 239.011C339.562 239.007 339.621 239.024 339.67 239.06L343.07 242.38C343.115 242.427 343.141 242.49 343.141 242.555C343.141 242.621 343.115 242.684 343.07 242.73C343.023 242.774 342.963 242.798 342.9 242.8V242.8Z" fill="#263238"/>
<path d="M240.129 264.57L238.729 262.57C237.887 261.372 237.434 259.944 237.429 258.48V254C237.428 252.263 236.806 250.583 235.674 249.264C234.543 247.946 232.977 247.075 231.259 246.81V244.68C231.259 244.415 231.154 244.161 230.966 243.973C230.779 243.786 230.525 243.68 230.259 243.68C229.994 243.68 229.74 243.786 229.552 243.973C229.365 244.161 229.259 244.415 229.259 244.68V246.78C227.488 246.988 225.855 247.84 224.669 249.172C223.484 250.505 222.829 252.227 222.829 254.01V258.63C222.831 260.218 222.299 261.76 221.319 263.01L220.109 264.55L240.129 264.57Z" fill="#455A64"/>
<path d="M229.089 267.82C229.633 268.038 230.226 268.101 230.803 268.002C231.381 267.903 231.919 267.647 232.359 267.26C232.737 266.914 233.019 266.477 233.179 265.99H227.359C227.508 266.397 227.739 266.769 228.036 267.083C228.334 267.398 228.692 267.649 229.089 267.82V267.82Z" fill="#455A64"/>
<path d="M318.58 248.64C318.58 248.78 302.96 248.9 283.69 248.9C264.42 248.9 248.81 248.78 248.81 248.64C248.81 248.5 264.43 248.38 283.69 248.38C302.95 248.38 318.58 248.49 318.58 248.64Z" fill="#263238"/>
<path d="M335 257.08C335 257.23 315.7 257.34 291.9 257.34C268.1 257.34 248.79 257.23 248.79 257.08C248.79 256.93 268.08 256.82 291.9 256.82C315.72 256.82 335 256.94 335 257.08Z" fill="#E0E0E0"/>
<path d="M335 262.14C335 262.28 315.7 262.4 291.9 262.4C268.1 262.4 248.79 262.28 248.79 262.14C248.79 262 268.08 261.88 291.9 261.88C315.72 261.88 335 262 335 262.14Z" fill="#E0E0E0"/>
<path d="M342.049 285.19H217.549C213.717 285.19 210.609 288.297 210.609 292.13V322.61C210.609 326.443 213.717 329.55 217.549 329.55H342.049C345.882 329.55 348.989 326.443 348.989 322.61V292.13C348.989 288.297 345.882 285.19 342.049 285.19Z" fill="#FAFAFA"/>
<path d="M342.05 329.56C342.05 329.56 342.36 329.56 342.95 329.47C343.833 329.35 344.683 329.054 345.45 328.6C346.708 327.877 347.705 326.774 348.3 325.45C348.669 324.611 348.869 323.707 348.89 322.79V319.63C348.89 315.15 348.89 309.68 348.89 303.33C348.89 300.15 348.89 296.75 348.89 293.15C348.942 292.251 348.868 291.349 348.67 290.47C348.449 289.579 348.043 288.745 347.48 288.02C346.901 287.262 346.168 286.636 345.328 286.184C344.488 285.732 343.561 285.465 342.61 285.4L217.61 285.45C216.134 285.46 214.702 285.954 213.535 286.858C212.367 287.761 211.529 289.024 211.15 290.45C210.968 291.158 210.89 291.89 210.92 292.62V299.34C210.92 305.294 210.92 311.147 210.92 316.9V321.19C210.92 321.9 210.92 322.63 210.92 323.3C210.989 323.988 211.157 324.661 211.42 325.3C211.956 326.55 212.859 327.608 214.009 328.334C215.158 329.061 216.501 329.422 217.86 329.37H234.1L290.29 329.42L328.18 329.51L338.48 329.56H341.16H342.07C342.07 329.56 341.76 329.56 341.16 329.56H338.48L328.18 329.61L290.29 329.69L234.1 329.75H217.84C216.383 329.799 214.945 329.408 213.712 328.629C212.48 327.849 211.511 326.718 210.93 325.38C210.651 324.699 210.469 323.982 210.39 323.25C210.39 322.51 210.39 321.81 210.39 321.09C210.39 319.67 210.39 318.24 210.39 316.8V292.58C210.359 291.805 210.443 291.03 210.64 290.28C211.056 288.743 211.967 287.385 213.232 286.418C214.498 285.451 216.047 284.928 217.64 284.93L342.64 285.04C343.641 285.111 344.616 285.394 345.499 285.872C346.382 286.35 347.153 287.011 347.76 287.81C348.344 288.579 348.769 289.456 349.01 290.39C349.201 291.297 349.275 292.225 349.23 293.15C349.23 296.75 349.23 300.15 349.23 303.33C349.23 309.68 349.23 315.15 349.18 319.63C349.18 320.74 349.18 321.8 349.18 322.79C349.146 323.997 348.8 325.175 348.176 326.209C347.552 327.242 346.672 328.097 345.62 328.69C344.836 329.139 343.968 329.421 343.07 329.52C342.732 329.561 342.39 329.575 342.05 329.56V329.56Z" fill="#263238"/>
<path d="M339 294.38C338.966 294.38 338.933 294.373 338.902 294.359C338.871 294.345 338.843 294.325 338.82 294.3C338.796 294.278 338.777 294.251 338.764 294.221C338.751 294.191 338.744 294.158 338.744 294.125C338.744 294.093 338.751 294.06 338.764 294.03C338.777 294 338.796 293.973 338.82 293.95L342.23 290.68C342.278 290.634 342.343 290.608 342.41 290.608C342.477 290.608 342.541 290.634 342.59 290.68C342.636 290.727 342.661 290.79 342.661 290.855C342.661 290.921 342.636 290.984 342.59 291.03L339.18 294.3C339.158 294.326 339.13 294.347 339.099 294.361C339.068 294.374 339.034 294.381 339 294.38Z" fill="#263238"/>
<path d="M342.42 294.39C342.353 294.391 342.289 294.365 342.24 294.32L338.87 291C338.822 290.953 338.795 290.89 338.794 290.823C338.793 290.757 338.819 290.693 338.865 290.645C338.911 290.597 338.975 290.57 339.041 290.569C339.108 290.568 339.172 290.594 339.22 290.64L342.59 293.94C342.636 293.987 342.661 294.049 342.661 294.115C342.661 294.18 342.636 294.243 342.59 294.29C342.549 294.344 342.488 294.38 342.42 294.39V294.39Z" fill="#263238"/>
<path d="M240.43 316L239 314C238.158 312.814 237.707 311.395 237.71 309.94V305.52C237.709 303.793 237.09 302.123 235.966 300.812C234.842 299.501 233.286 298.635 231.58 298.37V296.26C231.58 295.995 231.474 295.741 231.287 295.553C231.099 295.366 230.845 295.26 230.58 295.26C230.314 295.26 230.06 295.366 229.872 295.553C229.685 295.741 229.58 295.995 229.58 296.26V298.34C227.823 298.551 226.205 299.398 225.031 300.721C223.857 302.044 223.209 303.751 223.21 305.52V310.11C223.209 311.687 222.681 313.218 221.71 314.46L220.6 316H240.43Z" fill="#E0E0E0"/>
<path d="M229.47 319.22C230.011 319.435 230.6 319.496 231.174 319.397C231.747 319.299 232.282 319.043 232.72 318.66C233.092 318.315 233.371 317.882 233.53 317.4H227.76C227.905 317.804 228.132 318.174 228.426 318.487C228.72 318.8 229.075 319.05 229.47 319.22V319.22Z" fill="#E0E0E0"/>
<path d="M318.28 300.18C318.28 300.33 302.78 300.44 283.66 300.44C264.54 300.44 249.04 300.33 249.04 300.18C249.04 300.03 264.54 299.92 283.66 299.92C302.78 299.92 318.28 300 318.28 300.18Z" fill="#263238"/>
<path d="M334.6 308.56C334.6 308.71 315.44 308.82 291.82 308.82C268.2 308.82 249.04 308.71 249.04 308.56C249.04 308.41 268.19 308.3 291.82 308.3C315.45 308.3 334.6 308.42 334.6 308.56Z" fill="#E0E0E0"/>
<path d="M334.6 313.58C334.6 313.72 315.44 313.84 291.82 313.84C268.2 313.84 249.04 313.72 249.04 313.58C249.04 313.44 268.19 313.32 291.82 313.32C315.45 313.32 334.6 313.44 334.6 313.58Z" fill="#E0E0E0"/>
<path d="M444.46 272.73C434.11 278.1 426.17 287.33 420.46 297.49C414.75 307.65 411.07 318.82 407.46 329.89L404.24 387C416.29 366.5 425.96 342.41 428.57 318.79L420.57 318.07C425.95 317.25 430.46 313.36 433.33 308.74C436.2 304.12 437.68 298.8 439.12 293.56L429.32 295C437.041 289.798 442.463 281.823 444.46 272.73Z" fill="#455A64"/>
<path d="M444.46 272.73C434.11 278.1 426.17 287.33 420.46 297.49C414.75 307.65 411.07 318.82 407.46 329.89L404.24 387C416.29 366.5 425.96 342.41 428.57 318.79L420.57 318.07C425.95 317.25 430.46 313.36 433.33 308.74C436.2 304.12 437.68 298.8 439.12 293.56L429.32 295C437.041 289.798 442.463 281.823 444.46 272.73Z" fill="#9724C5"/>
<g opacity="0.3">
<path opacity="0.3" d="M444.46 272.73C434.11 278.1 426.17 287.33 420.46 297.49C414.75 307.65 411.07 318.82 407.46 329.89L404.24 387C416.29 366.5 425.96 342.41 428.57 318.79L420.57 318.07C425.95 317.25 430.46 313.36 433.33 308.74C436.2 304.12 437.68 298.8 439.12 293.56L429.32 295C437.041 289.798 442.463 281.823 444.46 272.73Z" fill="black"/>
</g>
<path d="M402.46 400.39C402.46 400.39 376.31 369.1 376.61 339.22H387.18C387.18 339.22 375.7 331.68 376.61 327.45C377.52 323.22 377.82 307.23 377.82 307.23L387.48 309.65C387.48 309.65 380.24 306.03 379.33 300.29C378.42 294.55 381.44 268 381.44 268C381.44 268 393.21 280.38 396.83 293.05C400.45 305.72 409.96 320.51 407.17 359.14C404.38 397.77 402.46 400.39 402.46 400.39Z" fill="#9724C5"/>
<path d="M415.71 403.34C415.71 403.34 444.04 384.47 450.33 360.39L441.84 358.08C441.84 358.08 452.72 354.52 452.91 350.93C453.1 347.34 456.36 334.41 456.36 334.41L448.07 334.24C448.07 334.24 454.68 332.91 456.67 328.5C458.66 324.09 462 302.08 462 302.08C462 302.08 449.83 309.45 444.15 318.85C438.47 328.25 427.59 338.05 421.38 369.72C415.17 401.39 415.71 403.34 415.71 403.34Z" fill="#9724C5"/>
<path d="M388.58 295.29C388.628 295.391 388.662 295.499 388.68 295.61C388.74 295.86 388.82 296.18 388.91 296.61C389.11 297.49 389.39 298.74 389.75 300.32C390.11 301.9 390.54 303.91 391 306.21C391.46 308.51 392 311.13 392.54 314.03C393.66 319.83 394.85 326.77 396.06 334.49C397.27 342.21 398.42 350.72 399.47 359.68C400.52 368.64 401.29 377.2 401.9 384.99C402.51 392.78 402.9 399.81 403.14 405.71C403.28 408.66 403.35 411.33 403.42 413.71C403.49 416.09 403.54 418.08 403.55 419.71C403.56 421.34 403.55 422.61 403.55 423.51V424.51C403.559 424.623 403.559 424.737 403.55 424.85C403.532 424.737 403.532 424.623 403.55 424.51C403.55 424.26 403.55 423.94 403.55 423.51C403.55 422.6 403.47 421.33 403.41 419.7C403.35 418.07 403.29 416.03 403.19 413.7C403.09 411.37 402.99 408.7 402.82 405.7C402.54 399.8 402.07 392.78 401.47 385C400.87 377.22 400.02 368.67 398.99 359.71C397.96 350.75 396.79 342.26 395.63 334.54C394.47 326.82 393.3 319.88 392.23 314.07C391.72 311.17 391.23 308.54 390.77 306.24C390.31 303.94 389.95 301.95 389.62 300.33C389.29 298.71 389.06 297.49 388.88 296.6C388.81 296.2 388.75 295.88 388.71 295.6C388.657 295.501 388.613 295.397 388.58 295.29Z" fill="#263238"/>
<path d="M398.83 419.55C398.83 419.55 374.9 392.41 367.48 376L373.08 373.61C369.02 374.28 364.85 372.53 361.7 369.88C358.55 367.23 356.23 363.74 353.96 360.3L361.35 359.05C354.563 357.108 348.783 352.628 345.21 346.54C353.93 347.98 361.82 352.77 368.32 358.75C373.478 363.713 378.164 369.143 382.32 374.97C384.407 377.772 386.225 380.766 387.75 383.91C391.77 392.22 398.84 409.58 398.83 419.55Z" fill="#9724C5"/>
<path d="M450.71 317.88C450.685 317.977 450.648 318.071 450.6 318.16L450.24 318.95C449.89 319.67 449.4 320.68 448.79 321.95C447.51 324.56 445.69 328.35 443.5 333.06C439.1 342.47 433.31 355.6 427.59 370.38C421.87 385.16 417.33 398.78 414.25 408.7C412.71 413.7 411.5 417.7 410.69 420.48C410.29 421.84 409.97 422.91 409.74 423.68L409.47 424.51C409.447 424.607 409.414 424.701 409.37 424.79C409.376 424.692 409.392 424.594 409.42 424.5C409.47 424.28 409.54 424 409.63 423.65C409.83 422.87 410.12 421.79 410.48 420.42C411.23 417.61 412.38 413.56 413.87 408.59C416.87 398.59 421.35 384.98 427.06 370.18C432.77 355.38 438.65 342.26 443.14 332.89C445.38 328.2 447.25 324.43 448.59 321.89C449.25 320.63 449.76 319.63 450.14 318.89L450.55 318.12C450.65 318 450.7 317.87 450.71 317.88Z" fill="#263238"/>
<path d="M400.86 431.19C400.796 431.03 400.755 430.862 400.74 430.69C400.67 430.29 400.59 429.82 400.5 429.25C400.31 428 400 426.19 399.56 423.97C399.12 421.75 398.51 419.13 397.72 416.24C396.93 413.35 395.92 410.24 394.72 407C393.52 403.76 392.16 400.76 390.87 398.07C389.58 395.38 388.28 393.01 387.14 391.07C386 389.13 385.05 387.55 384.36 386.48L383.59 385.24C383.487 385.103 383.406 384.952 383.35 384.79C383.35 384.79 383.48 384.91 383.68 385.18L384.54 386.36C385.29 387.36 386.3 388.93 387.48 390.86C388.66 392.79 389.98 395.17 391.33 397.86C392.68 400.55 394.01 403.58 395.24 406.86C396.47 410.14 397.44 413.27 398.24 416.17C399.04 419.07 399.58 421.72 399.97 423.96C400.36 426.2 400.62 428.02 400.73 429.28C400.79 429.86 400.83 430.34 400.87 430.74C400.888 430.89 400.885 431.041 400.86 431.19V431.19Z" fill="#263238"/>
<path d="M432.44 424.8H380.07V435.48H432.44V424.8Z" fill="#455A64"/>
<path d="M385.06 435.48L390.72 471.41H422.36L427.64 435.48H385.06Z" fill="#455A64"/>
<path d="M429.22 435.48C429.22 435.64 419.31 435.76 407.1 435.76C394.89 435.76 384.97 435.64 384.97 435.48C384.97 435.32 394.88 435.2 407.1 435.2C419.32 435.2 429.22 435.33 429.22 435.48Z" fill="#263238"/>
<path d="M121.621 170.09L122.711 157.17C116.427 152.994 111.933 146.618 110.112 139.297C108.291 131.975 109.275 124.237 112.869 117.604C116.464 110.971 122.41 105.922 129.538 103.45C136.666 100.978 144.461 101.262 151.39 104.246C158.32 107.23 163.883 112.697 166.985 119.575C170.088 126.452 170.506 134.241 168.157 141.41C165.808 148.58 160.863 154.612 154.292 158.32C147.722 162.028 140.002 163.145 132.651 161.45V161.45L121.621 170.09Z" fill="white"/>
<path d="M121.62 170.09L132.73 161.53L132.84 161.44L132.71 161.38L132.64 161.55C135.001 162.097 137.417 162.366 139.84 162.35C142.725 162.315 145.59 161.87 148.35 161.03C149.88 160.569 151.366 159.973 152.79 159.25C153.51 158.86 154.27 158.49 155 158.08L157.16 156.66C163.411 152.113 167.701 145.361 169.16 137.77C170.028 133.551 169.973 129.195 169 125C167.906 120.608 165.857 116.511 163 113C160.044 109.304 156.249 106.366 151.93 104.43L150.24 103.72C149.68 103.47 149.08 103.33 148.51 103.14C147.94 102.95 147.36 102.74 146.77 102.63L145 102.25C144.415 102.115 143.82 102.024 143.22 101.98L141.44 101.77H139.66C139.071 101.735 138.48 101.735 137.89 101.77C133.28 102.031 128.786 103.323 124.74 105.55C120.906 107.643 117.581 110.555 115 114.08C110.382 120.425 108.367 128.297 109.37 136.08C109.857 139.363 110.841 142.553 112.29 145.54C113.57 148.12 115.217 150.502 117.18 152.61C118.813 154.365 120.65 155.919 122.65 157.24V157.16C122.01 165.42 121.65 169.46 121.65 170.09C121.71 169.46 122.08 165.43 122.83 157.18V157.13C120.854 155.801 119.038 154.247 117.42 152.5C115.486 150.392 113.862 148.018 112.6 145.45C111.179 142.486 110.215 139.323 109.74 136.07C108.765 128.363 110.772 120.575 115.35 114.3C117.911 110.824 121.201 107.95 124.99 105.88C128.991 103.685 133.433 102.414 137.99 102.16C138.573 102.125 139.157 102.125 139.74 102.16H141.5L143.26 102.37C143.85 102.416 144.435 102.506 145.01 102.64L146.76 103.01C147.35 103.12 147.9 103.35 148.48 103.51C149.06 103.67 149.64 103.84 150.19 104.09L151.85 104.79C156.117 106.702 159.866 109.602 162.79 113.25C165.601 116.733 167.608 120.792 168.67 125.14C169.657 129.263 169.749 133.549 168.94 137.71C167.476 145.232 163.208 151.917 157 156.41L154.87 157.82C154.14 158.24 153.39 158.6 152.68 158.99C151.267 159.709 149.795 160.304 148.28 160.77C145.548 161.616 142.71 162.067 139.85 162.11C137.442 162.141 135.039 161.889 132.69 161.36L132.63 161.53V161.37C125.62 166.93 122.14 169.68 121.62 170.09Z" fill="#263238"/>
<path d="M135.16 116.68L136.09 134.24C136.13 134.933 136.421 135.587 136.909 136.081C137.397 136.574 138.048 136.873 138.74 136.92V136.92C139.464 136.966 140.177 136.734 140.735 136.271C141.293 135.808 141.652 135.15 141.74 134.43L143.87 116.81C143.907 116.496 143.877 116.177 143.781 115.875C143.686 115.573 143.528 115.295 143.317 115.059C143.106 114.823 142.848 114.634 142.559 114.505C142.27 114.376 141.957 114.309 141.64 114.31H137.36C137.057 114.312 136.758 114.376 136.481 114.498C136.204 114.62 135.954 114.798 135.748 115.02C135.542 115.242 135.384 115.504 135.283 115.789C135.181 116.075 135.14 116.378 135.16 116.68Z" fill="#9724C5"/>
<path d="M143.33 145.75C143.063 146.553 142.564 147.259 141.896 147.779C141.227 148.299 140.42 148.609 139.576 148.67C138.731 148.73 137.888 148.539 137.152 148.121C136.416 147.702 135.821 147.074 135.442 146.318C135.062 145.561 134.916 144.708 135.022 143.868C135.127 143.028 135.479 142.238 136.033 141.598C136.588 140.958 137.319 140.497 138.136 140.273C138.952 140.049 139.817 140.072 140.62 140.34C141.697 140.698 142.587 141.469 143.095 142.484C143.603 143.498 143.688 144.673 143.33 145.75V145.75Z" fill="#9724C5"/>
</svg>
