<svg width="500" height="500" viewBox="0 0 500 500" fill="none" xmlns="http://www.w3.org/2000/svg">
<path d="M462.401 249.3C462.401 249.3 472.531 249.87 468.691 272.3C464.851 294.73 461.001 306.35 461.001 306.35C461.001 306.35 460.641 311.35 464.641 310.9C468.641 310.45 476.531 306.5 479.641 310.6C482.751 314.7 480.811 320.45 474.991 326.6C469.171 332.75 456.901 346.73 455.801 348C454.701 349.27 454.021 351.75 456.801 351.86C459.581 351.97 478.881 348.09 480.171 357.37C481.461 366.65 462.421 381.15 460.371 382.77C458.321 384.39 458.071 385.56 458.661 386.77C459.251 387.98 465.661 386.08 471.151 385.2C476.641 384.32 483.261 384.28 483.561 389.69C483.861 395.1 474.421 409.6 444.471 422.25L430.211 427.25L418.581 417.53C394.961 395.19 391.201 378.3 393.371 373.34C395.541 368.38 401.691 370.72 406.571 373.48C411.451 376.24 416.741 380.26 417.721 379.32C418.701 378.38 418.871 377.21 417.521 374.97C416.171 372.73 403.411 352.47 407.871 344.24C412.331 336.01 429.051 346.4 431.691 347.24C434.331 348.08 434.551 345.52 433.971 343.98C433.391 342.44 426.791 324.98 423.491 317.21C420.191 309.44 420.221 303.42 424.741 300.58C429.101 297.83 435.131 304.27 438.741 306.11C442.351 307.95 443.741 303.11 443.741 303.11C443.741 303.11 444.231 290.81 448.481 268.49C452.731 246.17 462.641 249.3 462.641 249.3" fill="#EBEBEB"/>
<path d="M430.53 430.86C433.59 414.45 438.53 385.21 442.89 360.12C447.25 335.03 451.23 312.34 454.2 295.93C455.69 287.73 456.9 281.1 457.74 276.49C458.15 274.21 458.48 272.43 458.74 271.2C458.84 270.61 458.92 270.15 458.98 269.83C459.04 269.51 459.04 269.35 459.04 269.35C459.04 269.35 458.99 269.51 458.93 269.82C458.87 270.13 458.77 270.6 458.65 271.19C458.4 272.41 458.05 274.19 457.6 276.46C456.7 281.03 455.44 287.67 453.92 295.87C450.86 312.27 446.84 334.96 442.47 360.04C438.1 385.12 433.22 414.38 430.25 430.8" fill="#E0E0E0"/>
<path d="M468.83 316.52C468.504 316.685 468.196 316.883 467.91 317.11C467.34 317.52 466.53 318.11 465.53 318.89C463.53 320.41 460.84 322.59 457.91 325.04L450.42 331.36L448.15 333.26C447.852 333.474 447.577 333.718 447.33 333.99C447.658 333.823 447.97 333.626 448.26 333.4C448.83 333 449.64 332.4 450.63 331.62C452.63 330.07 455.28 327.86 458.21 325.4L465.73 319.15L468.02 317.26C468.319 317.046 468.59 316.798 468.83 316.52V316.52Z" fill="#E0E0E0"/>
<path d="M446.06 333.37C446.17 333.29 441.92 327.54 436.59 320.52C431.26 313.5 426.84 307.86 426.74 307.94C426.64 308.02 430.88 313.78 436.22 320.8C441.56 327.82 446 333.45 446.06 333.37Z" fill="#E0E0E0"/>
<path d="M441.091 372.19C440.827 371.93 440.539 371.695 440.231 371.49L437.801 369.68C435.741 368.16 432.921 366.04 429.891 363.59C426.861 361.14 424.181 358.83 422.251 357.15L419.981 355.15C419.72 354.881 419.424 354.649 419.101 354.46C419.325 354.756 419.576 355.03 419.851 355.28C420.361 355.79 421.101 356.52 422.031 357.39C423.901 359.14 426.551 361.5 429.591 363.95C432.631 366.4 435.501 368.49 437.591 369.95C438.651 370.68 439.511 371.25 440.121 371.64C440.421 371.861 440.746 372.046 441.091 372.19Z" fill="#E0E0E0"/>
<path d="M465 361.48C464.655 361.55 464.319 361.661 464 361.81L461.4 362.81C459.21 363.71 456.21 364.98 452.89 366.41C449.57 367.84 446.59 369.16 444.44 370.14L442 371.35C441.681 371.483 441.377 371.647 441.09 371.84C441.436 371.777 441.772 371.669 442.09 371.52L444.69 370.52C446.88 369.62 449.89 368.35 453.2 366.92C456.51 365.49 459.5 364.17 461.65 363.19L464.19 362.01C464.48 361.867 464.752 361.689 465 361.48V361.48Z" fill="#E0E0E0"/>
<path d="M465 396.31C464.57 396.409 464.151 396.553 463.75 396.74L460.41 398.06C457.6 399.2 453.73 400.8 449.47 402.59C445.21 404.38 441.36 406.03 438.58 407.24L435.3 408.7C434.89 408.865 434.495 409.066 434.12 409.3C434.549 409.194 434.967 409.05 435.37 408.87L438.71 407.55C441.52 406.41 445.39 404.81 449.65 403.02C453.91 401.23 457.76 399.58 460.54 398.37L463.82 396.91C464.23 396.744 464.625 396.544 465 396.31Z" fill="#E0E0E0"/>
<path d="M434.791 408.78C434.46 408.444 434.102 408.136 433.721 407.86L430.721 405.46C428.191 403.46 424.721 400.62 420.941 397.4C417.161 394.18 413.831 391.2 411.441 389.02L408.591 386.43C408.258 386.096 407.896 385.791 407.511 385.52C407.817 385.879 408.151 386.213 408.511 386.52C409.141 387.17 410.081 388.1 411.251 389.22C413.591 391.47 416.901 394.51 420.671 397.72C424.441 400.93 427.971 403.72 430.561 405.72C431.861 406.72 432.911 407.48 433.661 408C434.015 408.29 434.393 408.551 434.791 408.78V408.78Z" fill="#E0E0E0"/>
<path d="M108.15 109.65C107.06 104.27 110.45 99.1598 116.33 97.9698C118.902 97.45 121.574 97.9729 123.76 99.4235C125.946 100.874 127.466 103.134 127.985 105.705C128.505 108.276 127.982 110.949 126.532 113.134C125.081 115.32 122.822 116.84 120.25 117.36C118.949 117.668 117.598 117.713 116.279 117.49C114.96 117.267 113.699 116.782 112.57 116.063C111.442 115.344 110.47 114.406 109.71 113.304C108.951 112.203 108.421 110.96 108.15 109.65V109.65ZM93.1504 30.8098L111.66 27.0698L120.36 86.2298L108 88.7298L93.1504 30.8098Z" fill="#EBEBEB"/>
<path d="M124.58 117.54C122.591 118.727 120.313 119.346 117.996 119.328C115.679 119.31 113.412 118.657 111.44 117.44C110.152 116.596 109.046 115.503 108.188 114.226C107.329 112.948 106.735 111.511 106.44 110C105.14 103.53 109.24 97.6198 116 96.2498C117.506 95.8928 119.068 95.8445 120.593 96.1077C122.118 96.3708 123.574 96.9401 124.873 97.7811C126.171 98.6221 127.287 99.7174 128.151 101.001C129.015 102.285 129.61 103.73 129.9 105.25C130.215 106.748 130.231 108.294 129.948 109.799C129.665 111.304 129.088 112.738 128.25 114.02C127.31 115.456 126.055 116.66 124.58 117.54V117.54ZM113.58 100.87C112.147 101.701 111.012 102.963 110.337 104.477C109.662 105.99 109.481 107.678 109.82 109.3C110.024 110.355 110.438 111.358 111.037 112.25C111.637 113.142 112.41 113.903 113.31 114.49C115.253 115.721 117.604 116.134 119.85 115.64C120.94 115.436 121.978 115.018 122.905 114.41C123.831 113.802 124.629 113.017 125.25 112.1C126.426 110.284 126.832 108.075 126.38 105.96C126.176 104.896 125.757 103.885 125.149 102.987C124.542 102.09 123.759 101.326 122.847 100.74C121.935 100.155 120.914 99.7609 119.845 99.5821C118.777 99.4032 117.683 99.4432 116.63 99.6998C115.571 99.917 114.557 100.313 113.63 100.87H113.58ZM121.2 87.7298C121.029 87.8379 120.839 87.9125 120.64 87.9498L108.25 90.4498C107.817 90.527 107.371 90.4381 107 90.2009C106.629 89.9637 106.362 89.5955 106.25 89.1698L91.4303 31.2498C91.372 31.019 91.3605 30.7788 91.3965 30.5435C91.4326 30.3082 91.5155 30.0825 91.6403 29.8798C91.7665 29.6774 91.9327 29.5029 92.1287 29.367C92.3248 29.2312 92.5465 29.1368 92.7803 29.0898L111.29 25.3498C111.525 25.3009 111.767 25.3007 112.001 25.3492C112.236 25.3977 112.458 25.4938 112.654 25.6316C112.85 25.7694 113.016 25.946 113.14 26.1503C113.265 26.3547 113.347 26.5826 113.38 26.8198L122.08 85.9998C122.126 86.3377 122.071 86.6814 121.924 86.9887C121.776 87.296 121.542 87.5536 121.25 87.7298H121.2ZM109.2 86.7298L118.32 84.8898L110.13 29.2098L95.2503 32.2098L109.2 86.7298Z" fill="#EBEBEB"/>
<path d="M144.58 102.9C144.857 102.234 145.267 101.631 145.783 101.128C146.3 100.625 146.913 100.231 147.586 99.9716C148.259 99.7118 148.977 99.591 149.698 99.6165C150.419 99.642 151.127 99.8132 151.78 100.12C152.447 100.368 153.057 100.75 153.573 101.241C154.088 101.732 154.499 102.323 154.779 102.977C155.06 103.632 155.205 104.336 155.205 105.049C155.205 105.761 155.06 106.465 154.78 107.12C154.516 107.785 154.12 108.391 153.616 108.9C153.112 109.409 152.51 109.81 151.847 110.081C151.184 110.352 150.474 110.486 149.757 110.476C149.041 110.465 148.335 110.31 147.68 110.02C147.001 109.766 146.381 109.378 145.855 108.88C145.329 108.381 144.909 107.782 144.62 107.117C144.331 106.453 144.178 105.737 144.171 105.013C144.164 104.288 144.303 103.57 144.58 102.9V102.9ZM161.58 62.8999L171.04 66.7999L157.13 95.9999L150.8 93.3899L161.58 62.8999Z" fill="#EBEBEB"/>
<path d="M149.59 111.41C148.813 111.375 148.047 111.202 147.33 110.9C145.712 110.252 144.412 108.996 143.71 107.4C143.22 106.23 143.094 104.939 143.35 103.696C143.605 102.454 144.23 101.317 145.142 100.435C146.054 99.5535 147.211 98.9676 148.461 98.7542C149.712 98.5409 150.998 98.71 152.15 99.2395C152.936 99.532 153.654 99.9809 154.261 100.559C154.868 101.137 155.351 101.833 155.681 102.603C156.011 103.374 156.181 104.203 156.181 105.041C156.181 105.88 156.011 106.709 155.68 107.48C155.202 108.688 154.358 109.717 153.266 110.421C152.174 111.126 150.889 111.472 149.59 111.41V111.41ZM149.69 100.6C148.795 100.544 147.906 100.771 147.147 101.248C146.388 101.725 145.798 102.429 145.46 103.26C145.233 103.796 145.116 104.372 145.116 104.955C145.116 105.537 145.233 106.113 145.46 106.65C145.966 107.789 146.9 108.684 148.06 109.14C148.614 109.372 149.209 109.492 149.81 109.492C150.411 109.492 151.006 109.372 151.56 109.14C152.635 108.676 153.483 107.806 153.92 106.72C154.148 106.179 154.265 105.597 154.262 105.01C154.259 104.423 154.136 103.843 153.903 103.305C153.669 102.766 153.329 102.281 152.902 101.878C152.475 101.475 151.971 101.162 151.42 100.96C150.868 100.742 150.283 100.621 149.69 100.6ZM157.09 96.9895C156.98 96.9864 156.872 96.9627 156.77 96.9195L150.44 94.3095C150.222 94.207 150.048 94.0291 149.951 93.8086C149.854 93.5881 149.839 93.3399 149.91 93.1095L160.71 62.5695C160.806 62.3234 160.996 62.1252 161.238 62.0184C161.479 61.9116 161.754 61.9048 162 61.9995L171.46 65.8995C171.701 66.0032 171.891 66.1971 171.99 66.4396C172.088 66.6801 172.088 66.949 171.99 67.1896L158 96.4495C157.922 96.6224 157.793 96.7674 157.631 96.8656C157.468 96.9638 157.28 97.0105 157.09 96.9995V96.9895ZM152 92.8895L156.66 94.8195L169.78 67.2895L162.17 64.1495L152 92.8895Z" fill="#EBEBEB"/>
<path d="M65.46 132.4H414.54C419.293 132.4 423.851 134.288 427.211 137.649C430.572 141.009 432.46 145.567 432.46 150.32V433.52H47.54V150.31C47.5427 145.559 49.4319 141.004 52.7922 137.645C56.1526 134.287 60.7091 132.4 65.46 132.4V132.4Z" fill="#FAFAFA"/>
<path d="M377.35 361.7C377.35 361.85 315.25 361.97 238.66 361.97C162.07 361.97 100 361.85 100 361.7C100 361.55 162.08 361.44 238.7 361.44C315.32 361.44 377.35 361.56 377.35 361.7Z" fill="#263238"/>
<path d="M351.87 379C351.87 379.14 304.41 379.26 245.87 379.26C187.33 379.26 139.87 379.14 139.87 379C139.87 378.86 187.32 378.73 245.87 378.73C304.42 378.73 351.87 378.82 351.87 379Z" fill="#263238"/>
<path d="M432.45 132.4H47.54V249.17H432.45V132.4Z" fill="#9724C5"/>
<path d="M433 434H47V131.9H433V434ZM48 433H432V132.9H48V433Z" fill="#263238"/>
<path d="M215.49 225.68C213.729 225.678 212 225.214 210.474 224.334C208.949 223.454 207.682 222.188 206.8 220.664C205.918 219.14 205.452 217.411 205.448 215.649C205.445 213.888 205.904 212.157 206.78 210.63L235.57 160.41C236.445 158.883 237.709 157.615 239.234 156.737C240.759 155.858 242.49 155.4 244.25 155.41C246.01 155.399 247.742 155.857 249.267 156.735C250.792 157.614 252.056 158.882 252.93 160.41L282.03 210.46C282.933 211.982 283.415 213.716 283.428 215.485C283.442 217.254 282.985 218.995 282.106 220.531C281.226 222.066 279.955 223.34 278.422 224.224C276.889 225.107 275.15 225.568 273.38 225.56L215.48 225.74L215.49 225.68ZM244.29 158.36C243.053 158.359 241.837 158.686 240.768 159.308C239.698 159.93 238.812 160.824 238.2 161.9L209.41 212.12C208.795 213.192 208.472 214.406 208.474 215.642C208.477 216.878 208.803 218.091 209.422 219.161C210.041 220.23 210.93 221.118 212 221.736C213.071 222.354 214.285 222.679 215.52 222.68L273.42 222.5C274.663 222.511 275.886 222.19 276.964 221.572C278.042 220.954 278.936 220.059 279.554 218.981C280.172 217.903 280.492 216.68 280.481 215.437C280.47 214.194 280.128 212.977 279.49 211.91L250.39 161.91C249.779 160.831 248.892 159.934 247.82 159.31C246.749 158.686 245.53 158.358 244.29 158.36V158.36Z" fill="white"/>
<path d="M240.28 209.42C240.279 208.92 240.378 208.424 240.573 207.964C240.767 207.503 241.053 207.087 241.412 206.739C241.772 206.392 242.198 206.12 242.665 205.942C243.132 205.763 243.631 205.681 244.13 205.7C244.634 205.67 245.138 205.743 245.613 205.914C246.088 206.085 246.523 206.351 246.891 206.696C247.26 207.04 247.554 207.456 247.757 207.918C247.96 208.38 248.067 208.879 248.071 209.383C248.075 209.888 247.976 210.388 247.781 210.853C247.586 211.318 247.298 211.739 246.935 212.089C246.572 212.44 246.141 212.713 245.669 212.892C245.198 213.071 244.694 213.152 244.19 213.13C243.688 213.153 243.185 213.074 242.714 212.898C242.242 212.722 241.811 212.453 241.446 212.107C241.081 211.76 240.789 211.344 240.589 210.882C240.389 210.42 240.284 209.923 240.28 209.42V209.42ZM240.4 179.26H247.5L246.5 201.71H241.75L240.4 179.26Z" fill="white"/>
<path d="M208.11 237C207.659 236.901 207.222 236.747 206.81 236.54C205.656 236.044 204.551 235.441 203.51 234.74C200.031 232.411 197.293 229.134 195.619 225.297C193.946 221.46 193.408 217.223 194.07 213.09C194.255 211.85 194.56 210.631 194.98 209.45C195.114 209.007 195.299 208.581 195.53 208.18C195.059 209.822 194.691 211.492 194.43 213.18C193.883 217.239 194.46 221.37 196.098 225.124C197.736 228.877 200.372 232.11 203.72 234.47C205.13 235.403 206.596 236.248 208.11 237V237Z" fill="white"/>
<path d="M195.76 235.78C195.76 235.78 195.5 235.63 195.09 235.27C194.513 234.772 193.978 234.226 193.49 233.64C191.843 231.718 190.547 229.521 189.66 227.15C188.768 224.78 188.294 222.272 188.26 219.74C188.25 218.978 188.293 218.216 188.39 217.46C188.403 217.176 188.46 216.896 188.56 216.63C188.65 216.63 188.56 217.83 188.63 219.73C188.888 224.712 190.684 229.491 193.77 233.41C195 234.9 195.82 235.71 195.76 235.78Z" fill="white"/>
<path d="M296.77 201C296.944 201.349 297.072 201.718 297.15 202.1C297.29 202.529 297.4 202.966 297.48 203.41C297.612 203.998 297.712 204.592 297.78 205.19C297.988 206.741 298.051 208.307 297.97 209.87C297.856 211.785 297.554 213.684 297.07 215.54C296.549 217.389 295.852 219.183 294.99 220.9C294.273 222.307 293.429 223.646 292.47 224.9C292.08 225.44 291.66 225.9 291.31 226.28C291.017 226.635 290.7 226.969 290.36 227.28C290.095 227.561 289.804 227.815 289.49 228.04C289.41 227.96 290.62 226.84 292.17 224.71C293.077 223.446 293.876 222.108 294.56 220.71C296.242 217.325 297.238 213.641 297.49 209.87C297.59 208.334 297.567 206.792 297.42 205.26C297.15 202.56 296.67 201 296.77 201Z" fill="white"/>
<path d="M303.32 212C303.491 212.866 303.538 213.751 303.46 214.63C303.31 218.898 302.148 223.069 300.07 226.8C299.682 227.59 299.183 228.32 298.59 228.97C298.926 228.168 299.31 227.386 299.74 226.63C301.607 222.879 302.744 218.806 303.09 214.63C303.114 213.75 303.191 212.871 303.32 212V212Z" fill="white"/>
<path d="M47.7695 285.18C47.7695 285.18 69.4895 279.41 70.7695 280.45C77.4295 285.76 112.649 281.6 112.649 281.6L146.259 291.09C146.259 291.09 151.72 331.35 155.41 347.09C157.87 357.56 148.63 373.3 148.63 373.3L136.77 416.3L147.02 433.24L47.7295 433.19V285.19L47.7695 285.18Z" fill="#9724C5"/>
<path d="M134.22 331.48C134.22 331.48 133.92 331.48 133.35 331.57C132.78 331.66 131.93 331.68 130.85 331.81C127.798 332.145 124.764 332.632 121.76 333.27C117.94 334.05 113.45 335.18 108.45 336.4C105.95 337 103.31 337.62 100.56 338.17C99.1801 338.43 97.7901 338.73 96.3401 338.87L95.2501 338.99H94.1501C93.4101 338.99 92.6701 339.05 91.9201 338.99C86.3356 338.682 80.7864 337.91 75.3301 336.68C70.3301 335.68 65.7701 334.57 61.9701 333.74C58.1701 332.91 55.0801 332.27 52.9701 331.95C51.9001 331.75 51.0501 331.67 50.4901 331.59C49.9301 331.51 49.6201 331.45 49.6201 331.45C49.6201 331.45 50.8301 331.52 52.9901 331.83C55.1501 332.14 58.2401 332.72 62.0501 333.52C65.8601 334.32 70.3801 335.37 75.4201 336.39C80.8647 337.606 86.4 338.372 91.9701 338.68C92.7101 338.73 93.4501 338.68 94.1801 338.68H95.2701C95.6301 338.68 95.9801 338.6 96.3401 338.56C97.7701 338.43 99.1701 338.13 100.54 337.87C103.29 337.33 105.92 336.71 108.42 336.12C113.42 334.92 117.93 333.8 121.75 333.06C125.852 332.165 130.025 331.636 134.22 331.48Z" fill="#FAFAFA"/>
<path d="M138.49 408.47L137.71 407.94C137.22 407.57 136.46 407.08 135.48 406.45C132.678 404.723 129.693 403.311 126.58 402.24C121.96 400.667 117.129 399.801 112.25 399.67C106.27 399.741 100.302 400.229 94.3901 401.13C88.4644 402.015 82.4961 402.586 76.5101 402.84C71.6094 403.002 66.7078 402.549 61.9201 401.49C58.6948 400.758 55.581 399.602 52.6601 398.05C51.6601 397.48 50.8601 397.05 50.3501 396.66C49.8401 396.27 49.5801 396.13 49.5801 396.13C49.5801 396.13 49.8701 396.29 50.3901 396.61C50.9101 396.93 51.6901 397.39 52.7201 397.94C55.6564 399.447 58.7757 400.566 62.0001 401.27C66.7717 402.297 71.6524 402.727 76.5301 402.55C82.506 402.283 88.4641 401.706 94.3801 400.82C100.304 399.913 106.287 399.435 112.28 399.39C117.187 399.529 122.043 400.419 126.68 402.03C129.802 403.125 132.789 404.574 135.58 406.35C136.58 406.99 137.3 407.51 137.78 407.89C138.26 408.27 138.49 408.47 138.49 408.47Z" fill="#FAFAFA"/>
<path d="M139.889 422.66C139.889 422.66 139.579 422.76 138.979 422.92C138.379 423.08 137.509 423.31 136.389 423.67C133.24 424.693 130.148 425.888 127.129 427.25C122.677 429.357 118.032 431.031 113.259 432.25C110.415 432.895 107.506 433.214 104.589 433.2C101.462 433.152 98.3455 432.818 95.2793 432.2C88.9793 430.92 83.1893 428.94 77.8593 427.41C73.1635 425.962 68.3371 424.977 63.4493 424.47C60.1553 424.14 56.8317 424.258 53.5693 424.82C52.4193 425.05 51.5693 425.24 50.9393 425.42C50.3093 425.6 50.0293 425.65 50.0293 425.65C50.0293 425.65 50.3293 425.54 50.9193 425.36C51.5093 425.18 52.3993 424.95 53.5493 424.7C56.8195 424.095 60.1577 423.943 63.4693 424.25C68.3765 424.732 73.2236 425.7 77.9393 427.14C83.2793 428.66 89.0693 430.62 95.3393 431.89C98.3895 432.502 101.489 432.837 104.599 432.89C107.492 432.904 110.377 432.592 113.199 431.96C117.958 430.727 122.591 429.053 127.039 426.96C130.069 425.61 133.178 424.445 136.349 423.47C137.479 423.12 138.349 422.91 138.969 422.77L139.889 422.66Z" fill="#FAFAFA"/>
<g opacity="0.3">
<path opacity="0.3" d="M139.71 405.8C140.2 390.66 142.71 372.91 140.52 358.8C143.59 365.34 146.86 379.93 146.86 379.93C146.341 382.395 145.673 384.826 144.86 387.21C143.17 392.92 141.41 400.11 139.72 405.83" fill="black"/>
</g>
<path d="M145.999 374.25C145.999 374.25 145.689 374.04 145.129 373.62C144.32 373.001 143.476 372.43 142.599 371.91C139.323 370.04 135.729 368.789 131.999 368.22C126.484 367.39 120.871 367.461 115.379 368.43C109.169 369.43 102.509 371.43 95.4393 373.11C88.3693 374.79 81.4393 376.11 75.1193 375.36C69.5423 374.759 64.1209 373.149 59.1193 370.61C57.202 369.637 55.3749 368.496 53.6593 367.2C52.9293 366.59 52.2393 366.03 51.6593 365.48C51.0793 364.93 50.5493 364.39 50.1093 363.89L48.9993 362.5C48.7421 362.151 48.5051 361.787 48.2893 361.41C47.9193 360.82 47.7393 360.49 47.7393 360.49C47.7393 360.49 47.9593 360.79 48.3393 361.38C48.5393 361.66 48.7493 362.05 49.0693 362.45L50.1993 363.81C50.6493 364.3 51.1993 364.81 51.7593 365.37C52.3193 365.93 53.0393 366.47 53.7593 367.06C55.4763 368.337 57.3035 369.458 59.2193 370.41C64.2067 372.908 69.6024 374.49 75.1493 375.08C81.4193 375.79 88.3293 374.48 95.3693 372.81C102.409 371.14 109.089 369.14 115.369 368.15C120.89 367.186 126.533 367.139 132.069 368.01C135.804 368.604 139.396 369.889 142.659 371.8C143.53 372.34 144.369 372.931 145.169 373.57C145.729 374 145.999 374.25 145.999 374.25Z" fill="#FAFAFA"/>
<path d="M124.909 408.37C124.732 408.445 124.548 408.502 124.359 408.54L122.749 408.93C121.359 409.26 119.339 409.71 116.829 410.25C111.829 411.32 104.829 412.72 97.1893 414.13C89.5493 415.54 82.5093 416.69 77.4493 417.46C74.9193 417.84 72.8593 418.14 71.4493 418.32L69.8193 418.53C69.6268 418.557 69.4317 418.557 69.2393 418.53C69.4222 418.47 69.6094 418.423 69.7993 418.39L71.4193 418.09L77.4193 417.09C82.4193 416.23 89.4193 415.03 97.1293 413.62C104.839 412.21 111.759 410.87 116.789 409.88L122.739 408.73L124.369 408.44C124.546 408.397 124.727 408.373 124.909 408.37Z" fill="#263238"/>
<path d="M126.79 372.89C126.798 373.095 126.781 373.3 126.74 373.5C126.67 373.89 126.64 374.5 126.46 375.22C126.028 377.32 125.357 379.363 124.46 381.31C123.124 384.19 121.412 386.88 119.37 389.31C116.864 392.294 113.987 394.945 110.81 397.2C104.97 401.168 98.6492 404.377 91.9995 406.75C89.4795 407.75 87.4095 408.43 85.9995 408.91L84.3495 409.46C84.1608 409.529 83.9668 409.582 83.7695 409.62C83.9393 409.507 84.1246 409.42 84.3195 409.36L85.9395 408.72L91.9395 406.41C98.5149 403.954 104.778 400.732 110.6 396.81C113.709 394.561 116.53 391.938 119 389C121.041 386.61 122.762 383.965 124.12 381.13C125.039 379.211 125.753 377.2 126.25 375.13C126.61 373.71 126.74 372.89 126.79 372.89Z" fill="#263238"/>
<path d="M80.54 170C90.22 160.76 105.2 155.61 117.28 161.37C125.4 165.24 130.74 173.15 137.79 178.73C142.93 182.8 149.34 186.02 151.91 192.05C154.17 197.36 152.8 203.42 152.03 209.14C151.26 214.86 151.45 221.51 155.78 225.33C158.05 227.33 161.1 228.21 163.68 229.8C168.88 233.01 171.83 239.01 172.77 245.05C173.71 251.09 172.9 257.23 172.09 263.29L146.69 267.29L142.77 260.18L141 271.1L108.66 273L80.54 170Z" fill="#263238"/>
<path d="M75.9997 180.3L75.7097 187.3L70.3097 292.52C69.7397 304.72 81.0797 315.52 94.1397 316C107.34 316.52 113.04 306.78 113.82 294.46C114.64 281.54 115.74 267.95 115.74 267.95C115.74 267.95 132.55 266.18 137.31 244.67C139.68 233.96 140.2 216.22 140.16 201.67C140.15 198.571 139.515 195.506 138.292 192.659C137.069 189.812 135.283 187.241 133.041 185.101C130.8 182.962 128.149 181.297 125.248 180.207C122.347 179.118 119.256 178.625 116.16 178.76L75.9997 180.3Z" fill="#FFBE9D"/>
<path d="M132.6 214.52C132.563 215.248 132.244 215.932 131.709 216.428C131.175 216.923 130.468 217.189 129.74 217.17C129.384 217.175 129.031 217.11 128.702 216.978C128.372 216.845 128.072 216.649 127.819 216.399C127.565 216.15 127.364 215.853 127.227 215.525C127.09 215.197 127.019 214.845 127.02 214.49C127.056 213.764 127.374 213.081 127.906 212.586C128.438 212.091 129.143 211.824 129.87 211.84C130.226 211.832 130.581 211.896 130.912 212.027C131.244 212.158 131.546 212.354 131.8 212.604C132.054 212.854 132.256 213.152 132.394 213.481C132.531 213.81 132.601 214.164 132.6 214.52V214.52Z" fill="#263238"/>
<path d="M135.8 210.69C135.43 211.03 133.41 209.34 130.42 209.17C127.43 209 125.13 210.36 124.83 209.97C124.68 209.8 125.07 209.17 126.07 208.53C127.419 207.706 128.992 207.321 130.57 207.43C132.13 207.519 133.621 208.101 134.83 209.09C135.71 209.86 136 210.53 135.8 210.69Z" fill="#263238"/>
<path d="M103.46 213.58C103.421 214.307 103.101 214.99 102.567 215.485C102.033 215.979 101.328 216.247 100.6 216.23C100.243 216.237 99.8892 216.172 99.5582 216.04C99.2271 215.907 98.9259 215.71 98.6724 215.459C98.4189 215.208 98.2181 214.909 98.082 214.58C97.9459 214.25 97.8772 213.897 97.88 213.54C97.9187 212.815 98.2376 212.134 98.7693 211.639C99.3011 211.145 100.004 210.876 100.73 210.89C101.087 210.884 101.442 210.948 101.773 211.081C102.105 211.213 102.407 211.41 102.661 211.661C102.915 211.911 103.117 212.21 103.254 212.54C103.391 212.869 103.461 213.223 103.46 213.58V213.58Z" fill="#263238"/>
<path d="M106.29 209.47C105.93 209.82 103.91 208.13 100.91 207.95C97.9101 207.77 95.6201 209.15 95.3201 208.76C95.1701 208.59 95.5601 207.96 96.5601 207.32C97.9106 206.498 99.4825 206.113 101.06 206.22C102.621 206.304 104.114 206.886 105.32 207.88C106.2 208.64 106.47 209.32 106.29 209.47Z" fill="#263238"/>
<path d="M115.84 232.36C115.84 232.19 117.72 231.98 120.76 231.78C121.53 231.78 122.26 231.64 122.43 231.12C122.539 230.333 122.407 229.531 122.05 228.82L120.14 222.82C117.49 214.33 115.63 207.37 115.97 207.27C116.31 207.17 118.73 213.96 121.38 222.45C122.01 224.54 122.62 226.54 123.19 228.45C123.612 229.394 123.69 230.455 123.41 231.45C123.278 231.705 123.092 231.927 122.863 232.1C122.635 232.273 122.371 232.393 122.09 232.45C121.656 232.539 121.212 232.572 120.77 232.55C117.73 232.63 115.84 232.53 115.84 232.36Z" fill="#263238"/>
<path d="M115.779 268C105.54 267.54 95.6293 264.248 87.1494 258.49C87.1494 258.49 93.3094 273.84 115.149 273.11L115.779 268Z" fill="#EB996E"/>
<path d="M113.32 237.52C112.512 237.082 111.606 236.857 110.687 236.868C109.768 236.878 108.867 237.123 108.07 237.58C107.488 237.893 106.975 238.32 106.561 238.836C106.147 239.351 105.841 239.944 105.66 240.58C105.489 241.197 105.511 241.853 105.724 242.457C105.936 243.062 106.33 243.586 106.85 243.96C107.504 244.263 108.234 244.365 108.946 244.253C109.658 244.14 110.321 243.819 110.85 243.33C111.956 242.31 112.847 241.079 113.47 239.71C113.692 239.356 113.842 238.962 113.91 238.55C113.942 238.359 113.917 238.162 113.839 237.985C113.761 237.807 113.633 237.656 113.47 237.55" fill="#EB996E"/>
<path d="M105.23 201C105.12 201.86 102.1 202.12 98.75 203.28C95.4 204.44 92.82 205.99 92.2 205.37C91.93 205.07 92.2 204.22 93.2 203.2C94.4829 201.914 96.0526 200.951 97.78 200.39C99.4959 199.791 101.331 199.612 103.13 199.87C104.5 200.09 105.27 200.58 105.23 201Z" fill="#263238"/>
<path d="M137 206.13C136.18 206.58 134 205.13 131.12 204.18C128.24 203.23 125.66 202.91 125.31 202.05C125.17 201.64 125.77 201.11 127.03 200.84C128.752 200.546 130.52 200.708 132.16 201.31C133.815 201.853 135.296 202.826 136.45 204.13C137.27 205.12 137.39 205.9 137 206.13Z" fill="#263238"/>
<path d="M91.9995 168C95.7595 173.42 97.4995 177.54 99.5595 187C100.559 191.64 96.7095 194.77 92.8995 197.46C92.4901 197.75 92.0144 197.933 91.516 197.992C91.0177 198.05 90.5126 197.983 90.047 197.796C89.5814 197.609 89.1701 197.308 88.8508 196.921C88.5316 196.534 88.3145 196.073 88.2195 195.58V195.58C88.2195 195.58 88.9995 210 83.6095 216.3C81.0695 219.25 80.8395 223.13 81.3195 226.42C81.8523 229.785 83.3694 232.916 85.6795 235.42C91.5195 241.96 92.8595 252.42 88.4395 260.03C87.1691 261.904 85.9975 263.844 84.9295 265.84C84.386 267.033 84.1096 268.33 84.1195 269.64C84.1596 270.407 83.904 271.16 83.4055 271.744C82.9069 272.329 82.2032 272.699 81.4395 272.78C63.4564 274.792 45.3027 274.748 27.3295 272.65C26.7126 272.576 26.1339 272.312 25.6736 271.894C25.2132 271.477 24.8938 270.927 24.7595 270.32C23.5395 264.32 26.1095 257.87 29.2995 252.47C32.8695 246.47 37.3595 240.68 38.7395 233.81C40.0395 227.35 38.4995 220.28 41.3095 214.31C44.7495 206.99 53.5795 203.76 58.1595 197.09C62.4895 190.8 62.4295 182.35 66.3295 175.79C71.3295 167.36 83.1295 163.79 91.9895 167.99" fill="#263238"/>
<path d="M92.7295 176C99.4595 179.74 102.339 188.21 108.859 192.3C114.799 196.02 122.379 195.3 129.339 194.52C129.129 192.98 128.929 191.43 128.719 189.89C129.295 191.3 130.125 192.592 131.169 193.7C131.697 194.248 132.363 194.644 133.097 194.845C133.832 195.045 134.606 195.044 135.339 194.84C137.699 193.97 138.109 190.79 137.589 188.34C136.654 184.412 134.682 180.807 131.879 177.9C126.882 172.477 120.097 169.036 112.769 168.21C105.44 167.383 98.0595 169.226 91.9795 173.4" fill="#263238"/>
<path d="M67.6998 191.72C69.0391 188.432 69.4672 184.844 68.9393 181.333C68.4114 177.822 66.9468 174.519 64.6998 171.77C62.5476 169.302 59.7189 167.52 56.564 166.644C53.409 165.768 50.0664 165.836 46.9498 166.84C44.0477 167.727 41.5155 169.539 39.7398 172C36.4898 176.7 36.8598 183.79 39.9098 188.61C41.4173 190.885 43.4223 192.787 45.7732 194.173C48.1242 195.559 50.7595 196.392 53.4798 196.61C58.7398 197.11 64.0298 195.61 68.9798 193.54" fill="#263238"/>
<path d="M58.1592 192.81C58.2392 192.73 59.4392 193.81 61.6692 195.15C62.9767 195.938 64.3522 196.608 65.7792 197.15C69.2894 198.464 73.0391 199.017 76.7792 198.77C78.2962 198.676 79.8019 198.448 81.2792 198.09C83.7992 197.47 85.2792 196.77 85.2792 196.87C84.974 197.098 84.6371 197.28 84.2792 197.41C83.8784 197.612 83.4641 197.786 83.0392 197.93C82.4859 198.143 81.9218 198.327 81.3492 198.48C79.8558 198.898 78.3252 199.17 76.7792 199.29C72.9725 199.584 69.1491 199.006 65.5992 197.6C64.1587 197.034 62.7758 196.33 61.4692 195.5C60.9619 195.198 60.4743 194.864 60.0092 194.5C59.6563 194.237 59.3222 193.95 59.0092 193.64C58.6928 193.4 58.4073 193.121 58.1592 192.81V192.81Z" fill="#455A64"/>
<path d="M85.8596 206.24C85.4752 206.401 85.072 206.511 84.6597 206.57C83.8797 206.74 82.7497 206.96 81.3297 207.16C77.6296 207.748 73.8527 207.646 70.1897 206.86C66.4909 206.011 63.1719 203.974 60.7397 201.06C60.0225 200.172 59.4366 199.185 58.9996 198.13C58.8229 197.753 58.7016 197.352 58.6396 196.94C59.2884 198.315 60.0938 199.61 61.0396 200.8C63.483 203.555 66.7227 205.48 70.3096 206.31C73.9246 207.08 77.6439 207.232 81.3096 206.76C82.7196 206.61 83.8597 206.45 84.6497 206.35C85.047 206.265 85.4533 206.228 85.8596 206.24V206.24Z" fill="#455A64"/>
<path d="M44.9995 271.54C44.9995 271.54 44.9495 271.54 44.8695 271.39C44.7406 271.23 44.6205 271.063 44.5095 270.89C44.112 270.208 43.8441 269.459 43.7195 268.68C43.5523 267.234 43.7029 265.769 44.1606 264.387C44.6183 263.005 45.3721 261.74 46.3695 260.68C47.7276 259.237 49.287 257.997 50.9995 257C52.8195 255.88 54.8695 254.87 56.8695 253.61C59.0014 252.36 60.845 250.673 62.2795 248.66C62.99 247.586 63.4732 246.378 63.6995 245.11C63.9124 243.783 63.8853 242.428 63.6195 241.11C62.9913 238.516 62.1518 235.977 61.1095 233.52C60.1304 231.175 59.5882 228.67 59.5095 226.13C59.5268 221.807 60.9756 217.612 63.6295 214.2C65.3658 211.885 67.6281 210.017 70.2295 208.75L71.4595 208.21L72.4595 207.91C72.7153 207.817 72.98 207.75 73.2495 207.71C73.0042 207.832 72.7502 207.936 72.4895 208.02L71.5795 208.37L70.3795 208.95C67.8591 210.278 65.6766 212.167 63.9995 214.47C61.4212 217.823 60.0158 221.93 59.9995 226.16C60.0952 228.633 60.6372 231.069 61.5995 233.35C62.6694 235.823 63.5291 238.382 64.1695 241C64.4457 242.374 64.4728 243.786 64.2495 245.17C64.0318 246.542 63.5164 247.849 62.7395 249C61.2517 251.044 59.3462 252.748 57.1495 254C55.1495 255.27 53.0595 256.26 51.2495 257.36C49.5385 258.339 47.9817 259.566 46.6295 261C45.6515 262.015 44.9012 263.227 44.4287 264.554C43.9562 265.882 43.7724 267.295 43.8895 268.7C44.0616 269.713 44.4394 270.679 44.9995 271.54V271.54Z" fill="#455A64"/>
<path d="M73.9197 272.88C73.6986 272.778 73.4905 272.651 73.2997 272.5C72.7641 272.07 72.3218 271.536 71.9997 270.93C71.4733 269.956 71.1726 268.876 71.1197 267.77C71.0572 266.307 71.2674 264.846 71.7397 263.46C72.7397 260.29 75.4897 257.46 77.6097 253.89C78.7553 252.043 79.3871 249.923 79.4397 247.75C79.3971 245.415 78.8621 243.114 77.8697 241C75.9397 236.56 72.8697 233 70.7997 229.27C69.7716 227.528 68.9685 225.664 68.4097 223.72C67.9401 222.008 67.8177 220.22 68.0497 218.46C68.3021 215.881 69.5116 213.491 71.4397 211.76C71.9782 211.322 72.5779 210.965 73.2197 210.7C73.4392 210.597 73.6711 210.523 73.9097 210.48C72.3316 211.154 70.9791 212.265 70.0117 213.683C69.0443 215.1 68.5024 216.765 68.4497 218.48C68.2488 220.184 68.3916 221.912 68.8697 223.56C69.4324 225.467 70.2356 227.295 71.2597 229C72.2597 230.81 73.5697 232.63 74.8497 234.54C76.2158 236.502 77.4007 238.584 78.3897 240.76C79.3943 242.958 79.9258 245.343 79.9497 247.76C79.8811 250.026 79.2079 252.232 77.9997 254.15C75.7997 257.8 72.9997 260.56 72.0597 263.59C71.5797 264.923 71.3492 266.333 71.3797 267.75C71.401 268.819 71.6571 269.871 72.1297 270.83C72.5786 271.629 73.188 272.327 73.9197 272.88Z" fill="#455A64"/>
<path d="M119.49 192.63C119.49 192.63 119.35 192.63 119.09 192.44C118.719 192.228 118.364 191.987 118.03 191.72C116.824 190.712 115.808 189.496 115.03 188.13C113.905 186.106 112.964 183.984 112.22 181.79C111.76 180.57 111.27 179.31 110.65 178.05C110.007 176.759 109.24 175.533 108.36 174.39C105.244 170.344 100.945 167.37 96.0601 165.88C94.0234 165.315 91.9372 164.947 89.8301 164.78C90.402 164.724 90.9781 164.724 91.5501 164.78C93.1116 164.872 94.6597 165.123 96.1701 165.53C98.4143 166.152 100.554 167.102 102.52 168.35C106.23 170.646 109.22 173.938 111.15 177.85C111.77 179.14 112.26 180.42 112.71 181.64C113.423 183.82 114.316 185.938 115.38 187.97C116.11 189.324 117.059 190.548 118.19 191.59C119 192.28 119.52 192.58 119.49 192.63Z" fill="#455A64"/>
<path d="M134.669 193C134.47 192.999 134.272 192.972 134.079 192.92C133.524 192.817 132.981 192.656 132.459 192.44C130.529 191.654 128.797 190.448 127.389 188.91C125.311 186.64 123.58 184.076 122.249 181.3C120.639 178.25 119.099 174.76 116.639 171.69C114.31 168.819 111.176 166.709 107.639 165.63C104.734 164.76 101.73 164.26 98.6993 164.14C96.1093 164 93.9993 164.04 92.5393 164.05H90.8293C90.6333 164.074 90.4352 164.074 90.2393 164.05C90.4292 164.003 90.6236 163.976 90.8193 163.97C91.1993 163.97 91.8193 163.89 92.4993 163.86C93.9493 163.78 96.0593 163.68 98.6793 163.77C101.754 163.836 104.806 164.303 107.759 165.16C111.421 166.239 114.67 168.4 117.079 171.36C119.609 174.52 121.139 178.05 122.709 181.09C124.011 183.837 125.694 186.385 127.709 188.66C129.064 190.189 130.723 191.419 132.579 192.27C133.869 192.84 134.679 193 134.669 193Z" fill="#455A64"/>
<path d="M158.05 264.46C157.99 264.46 158.36 263.69 158.77 262.28C159.352 260.293 159.638 258.231 159.62 256.16C159.617 253.095 158.934 250.069 157.62 247.3C156.817 245.675 155.808 244.159 154.62 242.79C153.4 241.35 152 239.98 150.62 238.54C149.211 237.156 147.91 235.665 146.73 234.08C145.654 232.58 144.733 230.975 143.98 229.29C142.718 226.44 141.947 223.397 141.7 220.29C141.543 218.189 141.643 216.077 142 214C142.11 213.27 142.26 212.71 142.35 212.33C142.388 212.134 142.448 211.943 142.53 211.76C142.59 211.76 142.39 212.57 142.22 214.03C141.957 216.087 141.927 218.167 142.13 220.23C142.265 221.654 142.513 223.065 142.87 224.45C143.265 226.04 143.807 227.591 144.49 229.08C145.237 230.727 146.149 232.295 147.21 233.76C148.382 235.315 149.669 236.779 151.06 238.14C152.46 239.58 153.87 240.97 155.06 242.44C158.355 246.244 160.135 251.128 160.06 256.16C160.057 258.264 159.72 260.353 159.06 262.35C158.876 262.89 158.659 263.417 158.41 263.93C158.315 264.122 158.193 264.301 158.05 264.46V264.46Z" fill="#455A64"/>
<path d="M39.3792 186.92C39.3735 186.452 39.441 185.987 39.5792 185.54C39.881 184.307 40.338 183.118 40.9392 182C41.8519 180.226 43.1232 178.661 44.6725 177.405C46.2218 176.148 48.0153 175.227 49.9392 174.7C52.4253 174.206 55.0013 174.444 57.3549 175.384C59.7085 176.325 61.7387 177.928 63.1992 180C63.4813 180.357 63.7073 180.755 63.8692 181.18C62.8509 179.943 61.7119 178.811 60.4692 177.8C59.0106 176.679 57.3269 175.887 55.5335 175.478C53.7402 175.069 51.8796 175.053 50.0792 175.43C48.2393 175.934 46.5181 176.8 45.0158 177.976C43.5136 179.152 42.2604 180.615 41.3292 182.28C40.5362 183.763 39.8834 185.316 39.3792 186.92V186.92Z" fill="#455A64"/>
<path d="M51.4297 193.29C51.4434 192.209 51.5946 191.134 51.8797 190.09C52.3323 187.519 53.4414 185.107 55.0997 183.09C55.9286 182.166 57.0162 181.511 58.2215 181.211C59.4268 180.912 60.6943 180.981 61.8597 181.41C62.5683 181.709 63.1759 182.205 63.6097 182.84C63.9097 183.31 63.9997 183.61 63.9697 183.63C63.3632 182.88 62.5845 182.286 61.6997 181.9C60.6166 181.579 59.4648 181.57 58.3769 181.874C57.2889 182.179 56.3089 182.784 55.5497 183.62C53.9829 185.551 52.8811 187.816 52.3297 190.24C52.1086 191.279 51.8078 192.298 51.4297 193.29V193.29Z" fill="#455A64"/>
<path d="M68.1501 173C68.3201 173.14 66.1501 176.18 64.5801 180.62C63.0101 185.06 62.8001 188.94 62.5801 188.92C62.3601 188.9 62.3501 184.92 63.9601 180.35C65.5701 175.78 68.0501 172.91 68.1501 173Z" fill="#9724C5"/>
<path d="M21.1596 243.71C21.7397 244.426 22.4889 244.986 23.3396 245.34C24.3413 245.742 25.427 245.89 26.4996 245.77C27.9226 245.634 29.2696 245.065 30.3596 244.14C32.8196 242.14 34.1697 238.21 34.0597 234.04C34.0597 231.94 33.7697 229.74 33.5597 227.45C33.2756 225.076 33.316 222.674 33.6796 220.31C33.8872 219.11 34.2643 217.945 34.7996 216.85C35.3447 215.805 36.0386 214.845 36.8596 214C38.4542 212.444 40.2959 211.163 42.3097 210.21C44.2097 209.21 46.0596 208.48 47.7796 207.72C49.3708 207.025 50.8997 206.195 52.3496 205.24C54.4989 203.924 56.2484 202.047 57.4096 199.81C57.7773 198.967 58.0457 198.085 58.2096 197.18C58.2096 197.18 58.2096 197.42 58.1196 197.89C58.004 198.579 57.8024 199.251 57.5196 199.89C56.3909 202.183 54.6412 204.113 52.4697 205.46C51.0145 206.433 49.4789 207.279 47.8797 207.99C46.1697 208.76 44.3196 209.54 42.4396 210.49C40.4614 211.441 38.651 212.708 37.0797 214.24C36.2784 215.073 35.6045 216.02 35.0797 217.05C34.5585 218.121 34.1883 219.258 33.9796 220.43C33.1496 225.23 34.3696 229.86 34.3496 234.1C34.3296 238.34 33.0496 242.3 30.4996 244.37C29.368 245.316 27.9699 245.885 26.4996 246C25.4022 246.111 24.2945 245.942 23.2796 245.51C22.4021 245.168 21.6538 244.559 21.1396 243.77L21.1596 243.71Z" fill="#263238"/>
<path d="M148 173.19C148.092 173.384 148.16 173.589 148.2 173.8C148.327 174.413 148.285 175.049 148.08 175.64C147.685 176.726 146.94 177.65 145.963 178.266C144.985 178.882 143.83 179.154 142.68 179.04C141.097 178.851 139.605 178.201 138.39 177.17C137.011 176.005 135.846 174.607 134.95 173.04C133.95 171.43 133.05 169.65 131.86 168.04C130.647 166.315 129.219 164.753 127.61 163.39C123.906 160.256 119.382 158.247 114.573 157.6C109.764 156.953 104.87 157.696 100.47 159.74C99.7498 160.08 99.1898 160.36 98.8298 160.57C98.4698 160.78 98.2598 160.86 98.2598 160.86C98.9451 160.398 99.6637 159.987 100.41 159.63C102.451 158.638 104.617 157.928 106.85 157.52C110.548 156.817 114.358 156.958 117.994 157.933C121.63 158.908 124.999 160.691 127.85 163.15C129.481 164.528 130.926 166.111 132.15 167.86C133.35 169.56 134.24 171.34 135.23 172.94C136.109 174.482 137.245 175.862 138.59 177.02C139.765 178.025 141.207 178.668 142.74 178.87C144.008 179.015 145.283 178.656 146.29 177.87C147.067 177.295 147.661 176.506 148 175.6C148.214 175.029 148.276 174.412 148.18 173.81C148.06 173.4 148 173.19 148 173.19Z" fill="#263238"/>
<path d="M84.6497 265.19L84.8397 265.1L85.4098 264.84C85.9198 264.6 86.6597 264.25 87.5697 263.73C90.2003 262.295 92.4152 260.204 93.9997 257.66C95.0439 255.899 95.6509 253.914 95.7697 251.87C95.832 250.735 95.7104 249.597 95.4098 248.5C95.0526 247.355 94.5376 246.264 93.8797 245.26C92.3262 243.174 90.5228 241.287 88.5097 239.64C87.5097 238.73 86.4398 237.83 85.4398 236.84C84.3946 235.854 83.4714 234.746 82.6898 233.54C82.3034 232.926 81.9689 232.28 81.6898 231.61C81.452 230.93 81.291 230.226 81.2097 229.51C81.0334 228.11 81.191 226.688 81.6697 225.36C82.6815 222.936 83.9988 220.651 85.5897 218.56C86.9678 216.653 88.0593 214.554 88.8297 212.33C89.4735 210.389 89.8601 208.372 89.9798 206.33C90.1568 203.357 89.7491 200.377 88.7797 197.56C88.526 196.793 88.2254 196.041 87.8797 195.31C87.6397 194.81 87.5297 194.53 87.5297 194.53C87.5297 194.53 87.6797 194.79 87.9297 195.28C88.3151 196.003 88.6492 196.751 88.9297 197.52C89.9468 200.344 90.3888 203.343 90.2298 206.34C90.09 208.409 89.6764 210.45 88.9997 212.41C88.2249 214.659 87.1304 216.784 85.7497 218.72C84.1812 220.795 82.8809 223.06 81.8797 225.46C81.4207 226.74 81.2699 228.111 81.4398 229.46C81.52 230.143 81.6777 230.814 81.9098 231.46C82.1845 232.113 82.5192 232.739 82.9098 233.33C83.6734 234.52 84.5802 235.611 85.6097 236.58C86.6097 237.58 87.6097 238.46 88.6097 239.37C90.6437 241.034 92.4612 242.945 94.0197 245.06C94.6926 246.091 95.2146 247.212 95.5697 248.39C95.8748 249.513 95.9964 250.678 95.9297 251.84C95.7908 253.925 95.1603 255.946 94.0897 257.74C92.4869 260.292 90.242 262.378 87.5797 263.79C86.6482 264.346 85.6674 264.815 84.6497 265.19V265.19Z" fill="#263238"/>
<path d="M164.76 225.51L164.91 225.56C165.062 225.611 165.206 225.682 165.34 225.77C165.849 226.124 166.225 226.638 166.41 227.23C166.569 227.696 166.623 228.192 166.568 228.681C166.512 229.17 166.349 229.641 166.09 230.06C165.713 230.593 165.212 231.025 164.63 231.32C164.048 231.615 163.402 231.762 162.75 231.75C161.964 231.75 161.186 231.589 160.466 231.276C159.745 230.963 159.096 230.505 158.56 229.93C157.323 228.635 156.391 227.081 155.83 225.38C154.52 221.83 154.48 217.61 154.89 213.38C155.3 209.15 155.89 205.04 155.69 201.33C155.608 199.579 155.292 197.847 154.75 196.18C154.259 194.745 153.548 193.395 152.64 192.18C151.364 190.364 149.574 188.971 147.5 188.18C146.729 187.926 145.935 187.745 145.13 187.64C145.13 187.64 145.35 187.64 145.76 187.64C146.019 187.653 146.277 187.69 146.53 187.75C146.871 187.811 147.206 187.905 147.53 188.03C149.659 188.789 151.503 190.186 152.81 192.03C153.743 193.268 154.476 194.645 154.98 196.11C155.546 197.797 155.882 199.553 155.98 201.33C156.23 205.08 155.62 209.16 155.2 213.43C154.78 217.7 154.83 221.85 156.1 225.35C156.642 227.01 157.543 228.529 158.74 229.8C159.248 230.357 159.866 230.803 160.554 231.111C161.242 231.419 161.986 231.582 162.74 231.59C163.372 231.61 163.999 231.475 164.567 231.198C165.135 230.921 165.627 230.51 166 230C166.25 229.604 166.41 229.158 166.469 228.693C166.528 228.228 166.484 227.756 166.34 227.31C166.173 226.731 165.822 226.222 165.34 225.86C165 225.59 164.75 225.54 164.76 225.51Z" fill="#263238"/>
<path d="M70.3297 283.16C70.3297 283.16 78.4997 299.73 95.7897 299C113.08 298.27 114.88 283 114.88 283L124.56 293.65L114.88 317.48L100.65 323.63L77.4697 317.48L71.2697 307.66L55.9297 289.51L70.3297 283.16Z" fill="#9724C5"/>
<path d="M127.88 301H127C126.182 301.072 125.375 301.23 124.59 301.47C123.357 301.887 122.176 302.444 121.07 303.13C119.77 303.92 118.37 304.95 116.82 306.13C115.159 307.419 113.389 308.56 111.53 309.54C110.468 310.047 109.364 310.462 108.23 310.78C107.027 311.104 105.8 311.328 104.56 311.45C99.45 311.98 93.82 310.85 88.29 308.93C82.76 307.01 77.58 304.82 72.64 303.66C70.3058 303.108 67.9058 302.886 65.51 303C63.4236 303.072 61.345 303.292 59.29 303.66C56.2999 304.166 53.3887 305.06 50.63 306.32C50.14 306.54 49.73 306.78 49.37 306.98C49.0614 307.14 48.764 307.32 48.48 307.52L47.75 307.99C48.6175 307.287 49.5679 306.692 50.58 306.22C53.3296 304.904 56.2468 303.972 59.25 303.45C61.3137 303.064 63.4024 302.827 65.5 302.74C67.9181 302.614 70.3419 302.83 72.7 303.38C77.7 304.54 82.85 306.74 88.39 308.63C93.93 310.52 99.48 311.63 104.53 311.17C105.755 311.045 106.968 310.827 108.16 310.52C109.278 310.213 110.366 309.805 111.41 309.3C113.269 308.348 115.037 307.226 116.69 305.95C118.25 304.82 119.69 303.8 120.98 303.02C122.104 302.342 123.302 301.795 124.55 301.39C125.349 301.166 126.171 301.035 127 301C127.59 301 127.88 301 127.88 301Z" fill="#FAFAFA"/>
<path d="M129.94 243.7L136.52 257L137.12 264.2C137.12 264.2 137.72 262.03 138.46 259.99C139.2 257.95 139.67 251.57 139.67 251.57L134.87 241.62C134.87 241.62 132.04 236.13 135.46 233.57L140.54 240.28C140.54 240.28 136.54 232.57 140.31 230.47L144.6 235.29C144.445 235.044 144.346 234.768 144.309 234.48C144.272 234.192 144.298 233.899 144.386 233.622C144.473 233.345 144.62 233.091 144.816 232.876C145.012 232.662 145.252 232.492 145.52 232.38L156.35 246.27L155 266.72L151.29 288L153.06 291.18L133.83 304.5C133.83 304.5 127.83 291.35 127.41 287C126.99 282.65 131.28 259.6 131.28 259.6C131.28 259.6 127.19 251.41 127.72 248.13C128.25 244.85 129.94 243.7 129.94 243.7Z" fill="#FFBE9D"/>
<path d="M135.379 307.69L135.259 307.5L134.959 306.89L133.829 304.5C132.829 302.39 131.449 299.28 129.829 295.23C128.898 292.994 128.103 290.703 127.449 288.37C127.144 287.002 127.08 285.591 127.259 284.2C127.379 282.78 127.539 281.3 127.739 279.78C128.529 273.7 129.659 266.86 130.999 259.36V259.58C129.744 257.083 128.703 254.484 127.889 251.81C127.682 251.101 127.522 250.38 127.409 249.65C127.355 249.266 127.332 248.878 127.339 248.49V247.9L127.449 247.33C127.604 246.57 127.86 245.833 128.209 245.14C128.561 244.4 129.069 243.745 129.699 243.22L130.039 242.95L130.249 243.36C132.339 247.58 134.559 252.02 136.839 256.61V256.68V256.75C137.039 259.01 137.239 261.47 137.449 263.96L136.669 263.88C136.979 262.88 137.299 261.88 137.669 260.88L138.149 259.37C138.297 258.868 138.414 258.357 138.499 257.84C138.859 255.73 139.069 253.53 139.239 251.33V251.54L136.369 245.54C135.879 244.54 135.369 243.54 134.889 242.47C134.649 241.96 134.369 241.47 134.149 240.88C133.922 240.331 133.735 239.766 133.589 239.19C133.297 238.112 133.239 236.983 133.419 235.88C133.607 234.732 134.23 233.701 135.159 233L135.489 232.76L135.729 233.08L140.809 239.8L140.119 240.23C139.281 238.588 138.685 236.833 138.349 235.02C138.169 234.092 138.169 233.138 138.349 232.21C138.451 231.724 138.656 231.264 138.949 230.863C139.242 230.461 139.617 230.126 140.049 229.88L140.339 229.72L140.549 229.97L144.899 235.2L144.249 235.63C143.95 235.009 143.852 234.31 143.969 233.63C144.044 233.279 144.198 232.949 144.42 232.666C144.642 232.384 144.925 232.156 145.249 232L145.539 231.85L145.739 232.1L156.569 245.83L156.659 245.95V246.08C156.159 253.46 155.659 260.3 155.269 266.56C153.809 274.74 152.539 281.87 151.469 287.82V287.67L158.569 300.81L160.429 304.31L160.899 305.22C160.953 305.324 160.999 305.431 161.039 305.54C160.96 305.452 160.893 305.355 160.839 305.25L160.319 304.37L158.319 300.93C156.619 297.93 154.149 293.47 151.019 287.93V287.86V287.78C152.019 281.78 153.249 274.69 154.649 266.49C155.039 260.23 155.479 253.38 155.939 246.01L156.019 246.26L145.139 232.55L145.629 232.66C145.409 232.765 145.215 232.918 145.062 233.109C144.91 233.299 144.803 233.522 144.749 233.76C144.669 234.274 144.745 234.801 144.969 235.27L146.159 237.91L144.319 235.7L139.999 230.52L140.509 230.61C140.173 230.802 139.882 231.064 139.656 231.378C139.43 231.692 139.274 232.051 139.199 232.43C139.049 233.253 139.049 234.097 139.199 234.92C139.522 236.66 140.094 238.344 140.899 239.92L140.219 240.36L135.139 233.65L135.709 233.73C134.944 234.305 134.431 235.155 134.279 236.1C134.121 237.101 134.179 238.124 134.449 239.1C134.582 239.639 134.756 240.168 134.969 240.68C135.169 241.19 135.439 241.68 135.679 242.22L137.159 245.29L140.039 251.29L140.089 251.39V251.5C139.909 253.73 139.699 255.93 139.319 258.09C139.233 258.637 139.112 259.178 138.959 259.71C138.789 260.23 138.629 260.71 138.469 261.24L137.519 264.24L136.899 266.18L136.739 264.18C136.529 261.69 136.329 259.24 136.139 256.98V257.12C133.869 252.53 131.669 248.12 129.579 243.86L130.119 244C129.594 244.451 129.169 245.006 128.869 245.63C128.546 246.263 128.307 246.935 128.159 247.63C127.939 249.016 128.066 250.435 128.529 251.76C129.314 254.393 130.317 256.955 131.529 259.42V259.52V259.63C130.159 267.1 128.979 273.94 128.149 279.99C127.939 281.5 127.769 282.99 127.639 284.39C127.454 285.722 127.501 287.075 127.779 288.39C128.399 290.711 129.16 292.992 130.059 295.22C131.639 299.28 132.989 302.41 133.899 304.55C134.359 305.6 134.699 306.42 134.899 306.98L135.159 307.6C135.369 307.62 135.389 307.69 135.379 307.69Z" fill="#EB996E"/>
<path d="M145.65 262.18C145.506 261.008 145.506 259.823 145.65 258.65C145.76 256.47 145.98 253.47 146.28 250.16L146.36 249.25L146.43 249.52C144.69 246.93 143.17 244.6 142.11 242.9C141.472 242.025 140.945 241.075 140.54 240.07C141.307 240.826 141.979 241.672 142.54 242.59C143.72 244.21 145.31 246.48 147.06 249.06L147.15 249.18V249.32C147.15 249.61 147.1 249.92 147.07 250.23C146.78 253.54 146.47 256.54 146.21 258.7C146.156 259.878 145.968 261.045 145.65 262.18V262.18Z" fill="#EB996E"/>
<path d="M151.32 256.5C151.197 255.427 151.197 254.343 151.32 253.27C151.43 251.27 151.63 248.5 151.9 245.39L151.99 245.68L151.38 244.9C149.38 242.24 147.54 239.81 146.27 238.03C145.512 237.109 144.864 236.102 144.34 235.03C145.239 235.812 146.041 236.698 146.73 237.67C148.12 239.36 150 241.73 152.04 244.39C152.24 244.65 152.44 244.92 152.64 245.17L152.73 245.3V245.46C152.44 248.56 152.14 251.32 151.89 253.31C151.836 254.393 151.644 255.465 151.32 256.5Z" fill="#EB996E"/>
<path d="M128.64 300.05L155.45 288.73C155.45 288.73 194.45 376.14 196.69 381.79C202.07 395.1 196.75 414.85 182.11 414.49C175.21 414.33 155.45 411.65 150.06 390.66C148.37 384.08 143.58 368.31 143.58 368.31L128.64 300.05Z" fill="#9724C5"/>
<path d="M155.45 288.73C155.303 288.833 155.145 288.92 154.98 288.99L153.57 289.67L148.2 292.21L128.94 301.21L129.06 300.97C130.65 309.91 132.63 320.54 135.06 331.84C138.54 348.25 142.34 362.96 145.26 373.55C146.75 378.82 147.96 383.09 148.8 386.08C149.22 387.53 149.54 388.67 149.8 389.48L150.04 390.37C150.079 390.469 150.102 390.574 150.11 390.68C150.06 390.588 150.02 390.491 149.99 390.39C149.92 390.16 149.82 389.88 149.7 389.51L148.64 386.14C147.73 383.2 146.45 378.94 144.94 373.65C141.94 363.08 138.07 348.37 134.58 331.95C132.17 320.64 130.22 310 128.67 301.04V300.87L128.83 300.8L148.17 292L153.6 289.57L155.03 288.94L155.45 288.73Z" fill="#263238"/>
<path d="M192.349 376.2C192.281 376.34 192.201 376.474 192.109 376.6L191.369 377.73C190.99 378.33 190.572 378.904 190.119 379.45C189.599 380.1 189.049 380.88 188.329 381.63L187.219 382.85C186.829 383.27 186.389 383.67 185.949 384.1C185.079 384.98 184.059 385.8 182.999 386.7C180.627 388.552 178.09 390.182 175.419 391.57C172.728 392.915 169.915 394.003 167.019 394.82C165.679 395.15 164.409 395.5 163.189 395.68C162.579 395.78 161.999 395.91 161.429 395.98L159.789 396.15C158.789 396.29 157.789 396.28 156.969 396.32C156.26 396.366 155.549 396.366 154.839 396.32L153.489 396.26C153.336 396.271 153.182 396.271 153.029 396.26C153.186 396.245 153.343 396.245 153.499 396.26H154.839C155.549 396.298 156.26 396.298 156.969 396.26C157.789 396.2 158.739 396.2 159.769 396.04L161.389 395.85C161.959 395.77 162.539 395.64 163.139 395.54C164.349 395.35 165.609 394.99 166.949 394.66C172.717 393.032 178.109 390.286 182.819 386.58C183.869 385.7 184.899 384.89 185.819 384.02C186.259 383.6 186.709 383.21 187.099 382.79C187.489 382.37 187.859 381.98 188.209 381.59C188.939 380.85 189.509 380.09 190.039 379.46C190.494 378.919 190.921 378.355 191.319 377.77L192.109 376.68L192.349 376.2Z" fill="#FAFAFA"/>
<path d="M184.999 352.51C184.944 352.654 184.873 352.791 184.789 352.92C184.639 353.18 184.439 353.59 184.109 354.07C183.22 355.45 182.173 356.722 180.989 357.86C179.247 359.57 177.246 360.994 175.059 362.08C172.384 363.431 169.468 364.244 166.479 364.47C163.504 364.552 160.526 364.419 157.569 364.07C155.167 363.812 152.74 363.893 150.359 364.31C148.756 364.597 147.222 365.188 145.839 366.05C144.839 366.67 144.429 367.14 144.399 367.11C144.812 366.667 145.275 366.274 145.779 365.94C147.154 365.027 148.698 364.398 150.319 364.09C152.716 363.642 155.164 363.537 157.589 363.78C160.534 364.11 163.498 364.237 166.459 364.16C169.408 363.938 172.285 363.143 174.929 361.82C177.102 360.763 179.096 359.373 180.839 357.7C182.021 356.582 183.08 355.342 183.999 354C184.339 353.54 184.549 353.14 184.729 352.89C184.811 352.758 184.901 352.631 184.999 352.51Z" fill="#FAFAFA"/>
<path d="M137.659 342.11C137.659 342.11 138.199 342.11 139.159 342.11C140.517 342.078 141.863 341.856 143.159 341.45C145.073 340.839 146.891 339.96 148.559 338.84C150.598 337.443 152.539 335.91 154.369 334.25C156.204 332.583 158.134 331.024 160.149 329.58C161.819 328.412 163.639 327.473 165.559 326.79C166.847 326.334 168.195 326.068 169.559 326C170.06 325.975 170.562 325.995 171.059 326.06C171.059 326.06 170.519 326.06 169.559 326.12C168.192 326.232 166.847 326.528 165.559 327C163.673 327.704 161.888 328.652 160.249 329.82C158.25 331.272 156.331 332.831 154.499 334.49C152.661 336.158 150.706 337.692 148.649 339.08C146.951 340.206 145.098 341.078 143.149 341.67C141.831 342.057 140.463 342.246 139.089 342.23C138.61 342.235 138.131 342.195 137.659 342.11V342.11Z" fill="#FAFAFA"/>
<path d="M157.61 301.67C157.596 301.767 157.569 301.861 157.53 301.95C157.433 302.216 157.316 302.473 157.18 302.72C156.664 303.635 155.986 304.448 155.18 305.12C153.995 306.118 152.64 306.894 151.18 307.41C149.396 308.011 147.546 308.391 145.67 308.54C143.67 308.75 141.8 308.83 140.1 309.02C138.589 309.166 137.094 309.44 135.63 309.84C134.651 310.125 133.703 310.507 132.8 310.98C132.16 311.32 131.8 311.55 131.8 311.52C131.869 311.451 131.946 311.39 132.03 311.34C132.254 311.171 132.488 311.014 132.73 310.87C133.622 310.349 134.572 309.933 135.56 309.63C137.029 309.194 138.535 308.893 140.06 308.73C141.77 308.53 143.66 308.43 145.63 308.23C147.48 308.081 149.305 307.715 151.07 307.14C152.498 306.646 153.828 305.905 155 304.95C156.101 304.063 156.993 302.943 157.61 301.67Z" fill="#FAFAFA"/>
<path d="M396 389.56C398.31 392.32 402.22 390.99 403.91 389.03C405.6 387.07 406.15 384.41 406.64 381.87C407.77 376.07 408.88 369.99 407.15 364.34C406.706 362.62 405.796 361.056 404.52 359.82C403.873 359.213 403.079 358.787 402.215 358.583C401.352 358.379 400.45 358.406 399.6 358.66C397.6 359.37 396.6 361.45 395.82 363.41C393.657 369.187 392.804 375.373 393.32 381.52C393.57 384.38 394.17 387.35 396 389.52" fill="#9724C5"/>
<g opacity="0.2">
<path opacity="0.2" d="M396 389.56C398.31 392.32 402.22 390.99 403.91 389.03C405.6 387.07 406.15 384.41 406.64 381.87C407.77 376.07 408.88 369.99 407.15 364.34C406.706 362.62 405.796 361.056 404.52 359.82C403.873 359.213 403.079 358.787 402.215 358.583C401.352 358.379 400.45 358.406 399.6 358.66C397.6 359.37 396.6 361.45 395.82 363.41C393.657 369.187 392.804 375.373 393.32 381.52C393.57 384.38 394.17 387.35 396 389.52" fill="black"/>
</g>
<path d="M405.05 403.74C408.354 401.806 412.194 400.989 416 401.41C418.055 401.405 420.052 402.092 421.67 403.36C423.17 404.74 423.67 407.36 422.22 408.8C421.266 409.569 420.075 409.986 418.85 409.98C415.93 410.2 412.64 409.98 410.47 411.98C409.23 413.1 408.47 414.84 406.94 415.48C406.161 415.734 405.32 415.728 404.544 415.463C403.769 415.198 403.1 414.688 402.64 414.01C401.749 412.612 401.43 410.926 401.75 409.3C401.831 408.181 402.171 407.095 402.744 406.13C403.316 405.165 404.106 404.347 405.05 403.74V403.74Z" fill="#9724C5"/>
<path d="M390.76 394.28C391.697 392.804 392.259 391.121 392.397 389.378C392.535 387.635 392.244 385.885 391.55 384.28C390.125 381.083 387.849 378.34 384.97 376.35C381.679 373.911 377.942 372.141 373.97 371.14C372.433 370.671 370.812 370.541 369.22 370.76C368.424 370.876 367.669 371.186 367.02 371.662C366.372 372.138 365.85 372.765 365.5 373.49C364.59 375.68 365.86 378.12 367.19 380.09C369.517 383.56 372.115 386.84 374.96 389.9C377.25 392.36 379.83 394.76 383.06 395.68C386.29 396.6 389.53 396.16 391 393.85" fill="#9724C5"/>
<path d="M399.84 433.84C399.912 433.394 399.936 432.941 399.91 432.49C399.91 431.49 399.91 430.28 399.91 428.82C399.928 427.012 400.042 425.206 400.25 423.41C400.537 421.22 400.998 419.056 401.63 416.94C402.243 414.823 403.152 412.803 404.33 410.94C405.296 409.428 406.583 408.147 408.1 407.19C409.133 406.563 410.256 406.101 411.43 405.82C411.877 405.765 412.316 405.661 412.74 405.51C412.288 405.494 411.835 405.527 411.39 405.61C410.162 405.816 408.98 406.24 407.9 406.86C406.293 407.799 404.925 409.096 403.9 410.65C402.668 412.541 401.722 414.603 401.09 416.77C400.449 418.917 399.994 421.115 399.73 423.34C399.547 425.157 399.473 426.984 399.51 428.81C399.51 430.36 399.6 431.62 399.65 432.48C399.67 432.938 399.734 433.393 399.84 433.84V433.84Z" fill="#263238"/>
<path d="M399.84 431C399.871 430.791 399.871 430.579 399.84 430.37C399.84 429.91 399.75 429.32 399.68 428.61C399.54 427.07 399.34 424.85 399.18 422.1C398.82 416.6 398.62 408.98 398.79 400.57C398.96 392.16 399.51 384.57 400.14 379.09C400.29 377.72 400.44 376.48 400.6 375.4C400.76 374.32 400.86 373.4 400.99 372.62C401.12 371.84 401.18 371.32 401.25 370.86C401.275 370.654 401.275 370.446 401.25 370.24C401.176 370.434 401.122 370.635 401.09 370.84C400.99 371.3 400.87 371.88 400.73 372.58C400.56 373.34 400.41 374.27 400.24 375.35C400.07 376.43 399.87 377.67 399.71 379.04C398.813 386.18 398.305 393.364 398.19 400.56C398.02 408.99 398.28 416.62 398.74 422.13C398.95 424.88 399.21 427.13 399.42 428.63C399.53 429.34 399.61 429.93 399.68 430.39C399.711 430.598 399.765 430.803 399.84 431V431Z" fill="#263238"/>
<path d="M398.57 416.36C398.559 415.74 398.498 415.121 398.39 414.51C398.22 413.33 397.9 411.63 397.39 409.56C396.767 407.135 396.006 404.748 395.11 402.41C394.037 399.536 392.761 396.742 391.29 394.05C388.715 389.082 385.255 384.626 381.08 380.9C380.36 380.261 379.598 379.669 378.8 379.13C378.45 378.89 378.14 378.64 377.8 378.45L377 378C376.477 377.67 375.929 377.383 375.36 377.14C377.28 378.389 379.12 379.755 380.87 381.23C384.921 385.007 388.302 389.443 390.87 394.35C392.329 397.022 393.608 399.789 394.7 402.63C395.614 404.945 396.409 407.304 397.08 409.7C397.65 411.7 398.02 413.43 398.26 414.59C398.32 415.187 398.423 415.779 398.57 416.36Z" fill="#263238"/>
<path d="M213.964 303.684C213.964 305.103 213.622 306.433 212.938 307.674C212.279 308.915 211.228 309.916 209.784 310.676C208.365 311.436 206.567 311.816 204.388 311.816H199.942V322H194.622V295.476H204.388C206.44 295.476 208.188 295.831 209.632 296.54C211.076 297.249 212.153 298.225 212.862 299.466C213.597 300.707 213.964 302.113 213.964 303.684ZM204.16 307.522C205.629 307.522 206.719 307.193 207.428 306.534C208.137 305.85 208.492 304.9 208.492 303.684C208.492 301.1 207.048 299.808 204.16 299.808H199.942V307.522H204.16ZM237.311 311.018C237.311 311.778 237.26 312.462 237.159 313.07H221.769C221.896 314.59 222.428 315.781 223.365 316.642C224.302 317.503 225.455 317.934 226.823 317.934C228.799 317.934 230.205 317.085 231.041 315.388H236.779C236.171 317.415 235.006 319.087 233.283 320.404C231.56 321.696 229.445 322.342 226.937 322.342C224.91 322.342 223.086 321.899 221.465 321.012C219.869 320.1 218.615 318.821 217.703 317.174C216.816 315.527 216.373 313.627 216.373 311.474C216.373 309.295 216.816 307.383 217.703 305.736C218.59 304.089 219.831 302.823 221.427 301.936C223.023 301.049 224.86 300.606 226.937 300.606C228.938 300.606 230.724 301.037 232.295 301.898C233.891 302.759 235.12 303.988 235.981 305.584C236.868 307.155 237.311 308.966 237.311 311.018ZM231.801 309.498C231.776 308.13 231.282 307.041 230.319 306.23C229.356 305.394 228.178 304.976 226.785 304.976C225.468 304.976 224.353 305.381 223.441 306.192C222.554 306.977 222.01 308.079 221.807 309.498H231.801ZM246.514 304.216C247.198 303.101 248.085 302.227 249.174 301.594C250.289 300.961 251.556 300.644 252.974 300.644V306.23H251.568C249.896 306.23 248.63 306.623 247.768 307.408C246.932 308.193 246.514 309.561 246.514 311.512V322H241.194V300.948H246.514V304.216ZM259.256 298.44C258.318 298.44 257.533 298.149 256.9 297.566C256.292 296.958 255.988 296.211 255.988 295.324C255.988 294.437 256.292 293.703 256.9 293.12C257.533 292.512 258.318 292.208 259.256 292.208C260.193 292.208 260.966 292.512 261.574 293.12C262.207 293.703 262.524 294.437 262.524 295.324C262.524 296.211 262.207 296.958 261.574 297.566C260.966 298.149 260.193 298.44 259.256 298.44ZM261.878 300.948V322H256.558V300.948H261.878ZM278.8 300.644C281.308 300.644 283.334 301.442 284.88 303.038C286.425 304.609 287.198 306.813 287.198 309.65V322H281.878V310.372C281.878 308.7 281.46 307.421 280.624 306.534C279.788 305.622 278.648 305.166 277.204 305.166C275.734 305.166 274.569 305.622 273.708 306.534C272.872 307.421 272.454 308.7 272.454 310.372V322H267.134V300.948H272.454V303.57C273.163 302.658 274.062 301.949 275.152 301.442C276.266 300.91 277.482 300.644 278.8 300.644ZM300.503 300.606C302.073 300.606 303.454 300.923 304.645 301.556C305.835 302.164 306.773 302.962 307.457 303.95V300.948H312.815V322.152C312.815 324.103 312.422 325.838 311.637 327.358C310.851 328.903 309.673 330.119 308.103 331.006C306.532 331.918 304.632 332.374 302.403 332.374C299.413 332.374 296.956 331.677 295.031 330.284C293.131 328.891 292.054 326.991 291.801 324.584H297.083C297.361 325.547 297.957 326.307 298.869 326.864C299.806 327.447 300.933 327.738 302.251 327.738C303.796 327.738 305.05 327.269 306.013 326.332C306.975 325.42 307.457 324.027 307.457 322.152V318.884C306.773 319.872 305.823 320.695 304.607 321.354C303.416 322.013 302.048 322.342 300.503 322.342C298.729 322.342 297.108 321.886 295.639 320.974C294.169 320.062 293.004 318.783 292.143 317.136C291.307 315.464 290.889 313.551 290.889 311.398C290.889 309.27 291.307 307.383 292.143 305.736C293.004 304.089 294.157 302.823 295.601 301.936C297.07 301.049 298.704 300.606 300.503 300.606ZM307.457 311.474C307.457 310.182 307.203 309.08 306.697 308.168C306.19 307.231 305.506 306.521 304.645 306.04C303.783 305.533 302.859 305.28 301.871 305.28C300.883 305.28 299.971 305.521 299.135 306.002C298.299 306.483 297.615 307.193 297.083 308.13C296.576 309.042 296.323 310.131 296.323 311.398C296.323 312.665 296.576 313.779 297.083 314.742C297.615 315.679 298.299 316.401 299.135 316.908C299.996 317.415 300.908 317.668 301.871 317.668C302.859 317.668 303.783 317.427 304.645 316.946C305.506 316.439 306.19 315.73 306.697 314.818C307.203 313.881 307.457 312.766 307.457 311.474ZM316.643 311.398C316.643 309.27 317.061 307.383 317.897 305.736C318.758 304.089 319.911 302.823 321.355 301.936C322.824 301.049 324.458 300.606 326.257 300.606C327.827 300.606 329.195 300.923 330.361 301.556C331.551 302.189 332.501 302.987 333.211 303.95V300.948H338.569V322H333.211V318.922C332.527 319.91 331.577 320.733 330.361 321.392C329.17 322.025 327.789 322.342 326.219 322.342C324.445 322.342 322.824 321.886 321.355 320.974C319.911 320.062 318.758 318.783 317.897 317.136C317.061 315.464 316.643 313.551 316.643 311.398ZM333.211 311.474C333.211 310.182 332.957 309.08 332.451 308.168C331.944 307.231 331.26 306.521 330.399 306.04C329.537 305.533 328.613 305.28 327.625 305.28C326.637 305.28 325.725 305.521 324.889 306.002C324.053 306.483 323.369 307.193 322.837 308.13C322.33 309.042 322.077 310.131 322.077 311.398C322.077 312.665 322.33 313.779 322.837 314.742C323.369 315.679 324.053 316.401 324.889 316.908C325.75 317.415 326.662 317.668 327.625 317.668C328.613 317.668 329.537 317.427 330.399 316.946C331.26 316.439 331.944 315.73 332.451 314.818C332.957 313.881 333.211 312.766 333.211 311.474ZM349.959 305.318V315.502C349.959 316.211 350.123 316.731 350.453 317.06C350.807 317.364 351.39 317.516 352.201 317.516H354.671V322H351.327C346.843 322 344.601 319.821 344.601 315.464V305.318H342.093V300.948H344.601V295.742H349.959V300.948H354.671V305.318H349.959ZM357.129 311.398C357.129 309.27 357.547 307.383 358.383 305.736C359.244 304.089 360.397 302.823 361.841 301.936C363.31 301.049 364.944 300.606 366.743 300.606C368.314 300.606 369.682 300.923 370.847 301.556C372.038 302.189 372.988 302.987 373.697 303.95V300.948H379.055V322H373.697V318.922C373.013 319.91 372.063 320.733 370.847 321.392C369.656 322.025 368.276 322.342 366.705 322.342C364.932 322.342 363.31 321.886 361.841 320.974C360.397 320.062 359.244 318.783 358.383 317.136C357.547 315.464 357.129 313.551 357.129 311.398ZM373.697 311.474C373.697 310.182 373.444 309.08 372.937 308.168C372.43 307.231 371.746 306.521 370.885 306.04C370.024 305.533 369.099 305.28 368.111 305.28C367.123 305.28 366.211 305.521 365.375 306.002C364.539 306.483 363.855 307.193 363.323 308.13C362.816 309.042 362.563 310.131 362.563 311.398C362.563 312.665 362.816 313.779 363.323 314.742C363.855 315.679 364.539 316.401 365.375 316.908C366.236 317.415 367.148 317.668 368.111 317.668C369.099 317.668 370.024 317.427 370.885 316.946C371.746 316.439 372.43 315.73 372.937 314.818C373.444 313.881 373.697 312.766 373.697 311.474ZM395.917 300.644C398.425 300.644 400.452 301.442 401.997 303.038C403.542 304.609 404.315 306.813 404.315 309.65V322H398.995V310.372C398.995 308.7 398.577 307.421 397.741 306.534C396.905 305.622 395.765 305.166 394.321 305.166C392.852 305.166 391.686 305.622 390.825 306.534C389.989 307.421 389.571 308.7 389.571 310.372V322H384.251V300.948H389.571V303.57C390.28 302.658 391.18 301.949 392.269 301.442C393.384 300.91 394.6 300.644 395.917 300.644Z" fill="black"/>
</svg>
